<svg width="104" height="138" viewBox="0 0 104 138" fill="none" xmlns="http://www.w3.org/2000/svg">
<path d="M7.02217 0.7229H96.9782C98.649 0.7229 100.251 1.38665 101.433 2.56813C102.614 3.74961 103.278 5.35204 103.278 7.0229V130.977C103.278 132.648 102.614 134.25 101.433 135.432C100.251 136.613 98.649 137.277 96.9782 137.277H7.02217C5.3513 137.277 3.74887 136.613 2.5674 135.432C1.38592 134.25 0.722168 132.648 0.722168 130.977V7.0229C0.722168 5.35204 1.38592 3.74961 2.5674 2.56813C3.74887 1.38665 5.3513 0.7229 7.02217 0.7229Z" fill="white"/>
<path d="M5.16699 2.16797H98.834C99.6296 2.16797 100.393 2.48404 100.955 3.04665C101.518 3.60926 101.834 4.37232 101.834 5.16797V132.833C101.834 133.629 101.518 134.392 100.955 134.954C100.393 135.517 99.6296 135.833 98.834 135.833H5.16699C4.37134 135.833 3.60828 135.517 3.04567 134.954C2.48306 134.392 2.16699 133.629 2.16699 132.833V5.16797C2.16699 4.37232 2.48306 3.60926 3.04567 3.04665C3.60828 2.48404 4.37134 2.16797 5.16699 2.16797Z" fill="#FFCC00"/>
<path fill-rule="evenodd" clip-rule="evenodd" d="M4.5 0.5H99.5C100.561 0.5 101.578 0.921427 102.328 1.67157C103.079 2.42172 103.5 3.43913 103.5 4.5V133.5C103.5 134.561 103.079 135.578 102.328 136.328C101.578 137.079 100.561 137.5 99.5 137.5H4.5C3.43913 137.5 2.42172 137.079 1.67157 136.328C0.921427 135.578 0.5 134.561 0.5 133.5V4.5C0.5 3.43913 0.921427 2.42172 1.67157 1.67157C2.42172 0.921427 3.43913 0.5 4.5 0.5Z" stroke="black"/>
<path d="M4.524 2.16797C4.21406 2.16797 3.90715 2.2291 3.62086 2.34786C3.33457 2.46663 3.07451 2.64069 2.85558 2.86009C2.63665 3.07948 2.46314 3.33991 2.34498 3.62645C2.22683 3.91299 2.16635 4.22002 2.167 4.52997V133.47C2.16608 133.78 2.22638 134.087 2.34444 134.374C2.46251 134.66 2.63601 134.921 2.85499 135.14C3.07398 135.36 3.33414 135.534 3.62055 135.653C3.90696 135.771 4.21398 135.832 4.524 135.832H99.476C99.7859 135.832 100.093 135.771 100.379 135.652C100.665 135.533 100.925 135.359 101.144 135.14C101.363 134.92 101.537 134.66 101.655 134.373C101.773 134.087 101.834 133.78 101.833 133.47V4.52997C101.834 4.21995 101.774 3.9128 101.656 3.62614C101.537 3.33948 101.364 3.07895 101.145 2.8595C100.926 2.64005 100.666 2.46599 100.379 2.34733C100.093 2.22866 99.786 2.1677 99.476 2.16797H4.524ZM4.524 2.84197H18.329V73.219H11.315L22.538 92.72L33.761 73.22H26.747V2.84197H44.986V40.308C44.9844 40.751 45.0704 41.19 45.2389 41.5997C45.4074 42.0094 45.6552 42.3818 45.9681 42.6955C46.281 43.0092 46.6527 43.258 47.062 43.4276C47.4712 43.5972 47.91 43.6844 48.353 43.684H55.647C56.09 43.6844 56.5288 43.5972 56.938 43.4276C57.3473 43.258 57.7191 43.0092 58.0319 42.6955C58.3448 42.3818 58.5926 42.0094 58.7611 41.5997C58.9296 41.19 59.0156 40.751 59.014 40.308V2.84197H99.476C100.409 2.84197 101.16 3.59497 101.16 4.52997V133.47C101.16 134.405 100.409 135.157 99.476 135.157H81.462V97.127C81.462 93.024 79.836 89.09 76.942 86.189L54.522 63.715L59.482 58.743L37.789 52.908L43.609 74.654L48.569 69.681L70.989 92.157C72.305 93.4762 73.044 95.2636 73.044 97.127V135.157H59.014V97.691C59.0156 97.2479 58.9296 96.809 58.7611 96.3992C58.5926 95.9895 58.3448 95.6171 58.0319 95.3034C57.7191 94.9897 57.3473 94.7409 56.938 94.5713C56.5288 94.4017 56.09 94.3146 55.647 94.315H48.353C47.91 94.3146 47.4712 94.4017 47.062 94.5713C46.6527 94.7409 46.281 94.9897 45.9681 95.3034C45.6552 95.6171 45.4074 95.9895 45.2389 96.3992C45.0704 96.809 44.9844 97.2479 44.986 97.691V135.157H4.524C4.3026 135.157 4.08338 135.113 3.87887 135.029C3.67436 134.944 3.48859 134.819 3.33217 134.663C3.17576 134.506 3.05178 134.32 2.96733 134.115C2.88288 133.911 2.83961 133.691 2.84 133.47V4.52997C2.84 3.59497 3.591 2.84197 4.524 2.84197Z" fill="black"/>
<path d="M80.0859 18.354C70.7789 18.354 63.2349 25.894 63.2349 35.196C63.2349 44.497 70.7789 52.038 80.0859 52.038C89.3929 52.038 96.9379 44.498 96.9379 35.196C96.9379 25.895 89.3929 18.354 80.0859 18.354ZM80.0859 21.202C87.8199 21.202 94.0889 27.467 94.0889 35.196C94.0889 42.925 87.8199 49.19 80.0859 49.19C72.3529 49.19 66.0839 42.925 66.0839 35.196C66.0839 27.467 72.3529 21.202 80.0859 21.202Z" fill="#FF0000"/>
<path d="M94.09 35.1959C94.09 42.9249 87.82 49.1899 80.086 49.1899C72.353 49.1899 66.084 42.9249 66.084 35.1959C66.084 27.4669 72.353 21.2019 80.086 21.2019C87.82 21.2019 94.09 27.4669 94.09 35.1959Z" fill="white"/>
</svg>
