<svg xmlns="http://www.w3.org/2000/svg" width="100" height="86"><g transform="translate(10 3)" fill="none" fill-rule="evenodd"><rect fill="#FFF" fill-rule="nonzero" width="80" height="80" rx="6" /><rect stroke="#000" x=".5" y=".5" width="79" height="79" rx="6" /><path id="panel" d="M6.304 3A3.296 3.296 0 0 0 3 6.304v67.392A3.296 3.296 0 0 0 6.304 77h67.392A3.296 3.296 0 0 0 77 73.696V6.304A3.296 3.296 0 0 0 73.696 3H6.304z" fill="#0D69E1" fill-rule="nonzero" /><g id="digits" fill="#FFF" fill-rule="evenodd"><g transform="translate(19.517180 26.499083) scale(0.128580)"><path d="M99.6603 36H0.660309L10.6603 0.5H137.16V31.5C100.16 86 84.6603 149.5 69.1603 209.5H27.1603C39.1603 157.5 82.1603 64.5 99.6603 36Z" />
</g><g transform="translate(41.462599 26.499083) scale(0.121630)"><path fill-rule="evenodd" clip-rule="evenodd" d="M74 221.159C98.6667 222.492 147.9 201.459 147.5 106.659C147.1 11.8591 90.6667 -3.17424 62.5 1.15909C41.8333 5.32576 0.5 32.2591 0.5 106.659C0.5 199.659 41.5 221.159 74 221.159ZM109.5 106.659C111.5 172.259 86.6667 188.659 74 188.659C59 190.159 37.9 171.059 37.5 106.659C37.1 42.2591 61.6667 31.4924 74 34.1591C85 30.9924 107.5 41.0591 109.5 106.659Z" />
</g></g></g></svg>