<svg xmlns="http://www.w3.org/2000/svg" width="100" height="86"><g transform="translate(10 3)" fill="none" fill-rule="evenodd"><rect fill="#FFF" fill-rule="nonzero" width="80" height="80" rx="6" /><rect stroke="#000" x=".5" y=".5" width="79" height="79" rx="6" /><path id="panel" d="M6.304 3A3.296 3.296 0 0 0 3 6.304v67.392A3.296 3.296 0 0 0 6.304 77h67.392A3.296 3.296 0 0 0 77 73.696V6.304A3.296 3.296 0 0 0 73.696 3H6.304z" fill="#0D69E1" fill-rule="nonzero" /><g id="digits" fill="#FFF" fill-rule="evenodd"><g transform="translate(20.137513 27.015294) scale(0.117509)"><path fill-rule="evenodd" clip-rule="evenodd" d="M37.3119 104.578C6.31191 112.578 -27.0881 180.078 37.3119 214.078C52.8119 222.261 97.4119 222.878 109.812 214.078C151.312 196.578 168.812 131.078 104.812 104.578C142.312 94.0782 166.412 29.9782 104.812 5.57818C96.8119 -0.422008 53.3119 -1.922 39.8119 5.57805C7.81191 17.0779 -18.2881 72.9783 37.3119 104.578ZM73.3119 87.078C101.812 79.078 124.112 35.078 73.3119 31.078C23.8119 35.578 43.8119 81.078 73.3119 87.078ZM104.312 176.578C113.112 167.378 109.312 151.578 104.312 148.078C103.912 146.478 81.8119 125.578 73.3119 121.578C67.3119 121.578 49.8119 137.578 41.8119 145.578C33.4119 151.178 36.8119 170.745 41.8119 176.578C56.8119 194.078 93.8119 189.578 104.312 176.578Z" />
</g><g transform="translate(42.250682 27.015294) scale(0.116979)"><path fill-rule="evenodd" clip-rule="evenodd" d="M74 221.159C98.6667 222.492 147.9 201.459 147.5 106.659C147.1 11.8591 90.6667 -3.17424 62.5 1.15909C41.8333 5.32576 0.5 32.2591 0.5 106.659C0.5 199.659 41.5 221.159 74 221.159ZM109.5 106.659C111.5 172.259 86.6667 188.659 74 188.659C59 190.159 37.9 171.059 37.5 106.659C37.1 42.2591 61.6667 31.4924 74 34.1591C85 30.9924 107.5 41.0591 109.5 106.659Z" />
</g></g></g></svg>