<svg width="80" height="80" viewBox="0 0 80 80" fill="none" xmlns="http://www.w3.org/2000/svg">
<path d="M4.5 0.5H75.3C77.5 0.5 79.3 2.3 79.3 4.5V75.3C79.3 77.5 77.5 79.3 75.3 79.3H4.5C2.3 79.3 0.5 77.5 0.5 75.3V4.5C0.5 2.3 2.3 0.5 4.5 0.5Z" stroke="black"/>
<path d="M2.8999 74.0999C2.8999 75.5999 4.1999 76.8999 5.6999 76.8999H74.0999C75.5999 76.8999 76.8999 75.5999 76.8999 74.0999V5.6999C76.8999 4.1999 75.5999 2.8999 74.0999 2.8999H5.6999C4.1999 2.8999 2.8999 4.1999 2.8999 5.6999V74.0999Z" fill="#0D69E1"/>
<path d="M56.9998 16.2998C60.4998 19.5998 62.2998 23.9998 62.2998 29.2998C62.2998 34.5998 60.4998 38.9998 56.9998 42.2998C53.4998 45.5998 48.8998 47.2998 43.2998 47.2998H29.7998V70.5998H20.7998V11.2998H43.2998C48.8998 11.2998 53.4998 12.9998 56.9998 16.2998ZM50.3998 36.5998C52.2998 34.7998 53.2998 32.3998 53.2998 29.2998C53.2998 26.1998 52.3998 23.7998 50.4998 21.9998C48.5998 20.1998 45.9998 19.2998 42.6998 19.2998H29.7998V39.0998H42.6998C45.8998 39.1998 48.4998 38.3998 50.3998 36.5998Z" fill="white"/>
<path d="M41 67.5C43.7614 67.5 46 65.2614 46 62.5C46 59.7386 43.7614 57.5 41 57.5C38.2386 57.5 36 59.7386 36 62.5C36 65.2614 38.2386 67.5 41 67.5Z" fill="white"/>
<path d="M50.7 69.1998C54.4003 69.1998 57.4 66.2001 57.4 62.4998C57.4 58.7995 54.4003 55.7998 50.7 55.7998C46.9997 55.7998 44 58.7995 44 62.4998C44 66.2001 46.9997 69.1998 50.7 69.1998Z" fill="white"/>
<path d="M63.6997 70.5C68.118 70.5 71.6997 66.9183 71.6997 62.5C71.6997 58.0817 68.118 54.5 63.6997 54.5C59.2814 54.5 55.6997 58.0817 55.6997 62.5C55.6997 66.9183 59.2814 70.5 63.6997 70.5Z" fill="white"/>
<path d="M39.9301 64.2799H39.2401V61.6899C38.9901 61.9199 38.6901 62.0999 38.3501 62.2099V61.5899C38.5301 61.5299 38.7201 61.4199 38.9301 61.2599C39.1401 61.0999 39.2801 60.9099 39.3601 60.6899H39.9201V64.2799H39.9301Z" fill="black"/>
<path d="M42.1102 60.6899C42.4602 60.6899 42.7302 60.8099 42.9202 61.0599C43.1502 61.3499 43.2702 61.8399 43.2702 62.5199C43.2702 63.1999 43.1502 63.6799 42.9202 63.9799C42.7302 64.2199 42.4602 64.3499 42.1102 64.3499C41.7602 64.3499 41.4802 64.2199 41.2702 63.9499C41.0602 63.6799 40.9502 63.1999 40.9502 62.5199C40.9502 61.8399 41.0702 61.3599 41.3002 61.0599C41.4902 60.8199 41.7602 60.6899 42.1102 60.6899ZM42.1102 61.2599C42.0302 61.2599 41.9502 61.2899 41.8902 61.3399C41.8302 61.3899 41.7702 61.4899 41.7402 61.6199C41.6902 61.7999 41.6702 62.0999 41.6702 62.5199C41.6702 62.9399 41.6902 63.2299 41.7302 63.3899C41.7702 63.5499 41.8302 63.6499 41.8902 63.6999C41.9502 63.7499 42.0302 63.7799 42.1102 63.7799C42.1902 63.7799 42.2702 63.7499 42.3302 63.6999C42.3902 63.6499 42.4502 63.5499 42.4802 63.4199C42.5302 63.2399 42.5502 62.9499 42.5502 62.5299C42.5502 62.1099 42.5302 61.8199 42.4902 61.6599C42.4502 61.4999 42.3902 61.3999 42.3302 61.3499C42.2702 61.2999 42.1902 61.2699 42.1102 61.2699V61.2599Z" fill="black"/>
<path d="M49.1001 65.6199H48.0001V61.4799C47.6001 61.8599 47.1301 62.1299 46.5801 62.3099V61.3099C46.8701 61.2199 47.1801 61.0399 47.5101 60.7799C47.8401 60.5199 48.0801 60.2099 48.2001 59.8599H49.0901V65.6099L49.1001 65.6199Z" fill="black"/>
<path d="M50.76 64.1497L51.85 64.0397C51.88 64.2897 51.97 64.4798 52.13 64.6298C52.29 64.7798 52.46 64.8497 52.66 64.8497C52.89 64.8497 53.08 64.7597 53.24 64.5697C53.4 64.3797 53.48 64.0998 53.48 63.7298C53.48 63.3798 53.4 63.1098 53.24 62.9398C53.08 62.7698 52.88 62.6797 52.62 62.6797C52.31 62.6797 52.02 62.8197 51.77 63.0997L50.88 62.9697L51.44 59.9897H54.34V61.0198H52.27L52.1 61.9897C52.34 61.8697 52.59 61.8098 52.85 61.8098C53.34 61.8098 53.75 61.9898 54.09 62.3398C54.43 62.6898 54.6 63.1497 54.6 63.7197C54.6 64.1897 54.46 64.6098 54.19 64.9798C53.82 65.4798 53.3 65.7397 52.64 65.7397C52.11 65.7397 51.68 65.5998 51.35 65.3098C51.02 65.0198 50.82 64.6397 50.75 64.1697L50.76 64.1497Z" fill="black"/>
<path d="M63.5097 64.6099V65.8799H58.6997C58.7497 65.3999 58.9097 64.9399 59.1697 64.5099C59.4297 64.0799 59.9397 63.5099 60.7097 62.7899C61.3297 62.2099 61.7097 61.8199 61.8497 61.6199C62.0397 61.3399 62.1297 61.0599 62.1297 60.7799C62.1297 60.4699 62.0497 60.2399 61.8797 60.0699C61.7197 59.8999 61.4897 59.8199 61.1997 59.8199C60.9097 59.8199 60.6897 59.9099 60.5197 60.0799C60.3497 60.2499 60.2497 60.5399 60.2297 60.9399L58.8597 60.7999C58.9397 60.0499 59.1997 59.4999 59.6297 59.1699C60.0597 58.8399 60.5997 58.6799 61.2397 58.6799C61.9497 58.6799 62.4997 58.8699 62.9097 59.2499C63.3197 59.6299 63.5197 60.0999 63.5197 60.6699C63.5197 60.9899 63.4597 61.2999 63.3497 61.5899C63.2297 61.8799 63.0497 62.1899 62.7997 62.5099C62.6297 62.7199 62.3297 63.0299 61.8997 63.4199C61.4697 63.8099 61.1897 64.0799 61.0797 64.2099C60.9697 64.3399 60.8697 64.4699 60.7997 64.5899H63.5197L63.5097 64.6099Z" fill="black"/>
<path d="M66.7597 58.7C67.4497 58.7 67.9997 58.95 68.3897 59.44C68.8597 60.03 69.0897 61 69.0897 62.36C69.0897 63.72 68.8597 64.6899 68.3897 65.2799C67.9997 65.7699 67.4597 66.01 66.7697 66.01C66.0797 66.01 65.5097 65.7399 65.0897 65.2099C64.6597 64.6699 64.4497 63.7199 64.4497 62.3499C64.4497 60.9799 64.6797 60.03 65.1497 59.44C65.5397 58.95 66.0797 58.71 66.7697 58.71L66.7597 58.7ZM66.7597 59.84C66.5897 59.84 66.4497 59.89 66.3197 60C66.1897 60.11 66.0897 60.29 66.0197 60.57C65.9297 60.92 65.8797 61.52 65.8797 62.36C65.8797 63.2 65.9197 63.78 66.0097 64.09C66.0897 64.4 66.1997 64.61 66.3297 64.72C66.4597 64.83 66.6097 64.88 66.7697 64.88C66.9297 64.88 67.0797 64.83 67.2097 64.72C67.3397 64.61 67.4397 64.42 67.5097 64.15C67.5997 63.8 67.6497 63.2 67.6497 62.36C67.6497 61.52 67.6097 60.94 67.5197 60.63C67.4397 60.32 67.3297 60.11 67.1997 60C67.0697 59.89 66.9197 59.84 66.7597 59.84Z" fill="black"/>
</svg>
