<svg width="80" height="80" viewBox="0 0 80 80" fill="none" xmlns="http://www.w3.org/2000/svg">
<path d="M4.5 0.5H75.3C77.5 0.5 79.3 2.3 79.3 4.5V75.3C79.3 77.5 77.5 79.3 75.3 79.3H4.5C2.3 79.3 0.5 77.5 0.5 75.3V4.5C0.5 2.3 2.3 0.5 4.5 0.5Z" stroke="black"/>
<path d="M2.8999 74.0999C2.8999 75.5999 4.19991 76.8999 5.69991 76.8999H74.0999C75.5999 76.8999 76.8999 75.5999 76.8999 74.0999V5.6999C76.8999 4.1999 75.5999 2.8999 74.0999 2.8999H5.69991C4.19991 2.8999 2.8999 4.1999 2.8999 5.6999V74.0999Z" fill="#0D69E1"/>
<path d="M56.9998 16.2998C60.4998 19.5998 62.2998 23.9998 62.2998 29.2998C62.2998 34.5998 60.4998 38.9998 56.9998 42.2998C53.4998 45.5998 48.8998 47.2998 43.2998 47.2998H29.7998V70.5998H20.7998V11.2998H43.2998C48.8998 11.2998 53.4998 12.9998 56.9998 16.2998ZM50.3998 36.5998C52.2998 34.7998 53.2998 32.3998 53.2998 29.2998C53.2998 26.1998 52.3998 23.7998 50.4998 21.9998C48.5998 20.1998 45.9998 19.2998 42.6998 19.2998H29.7998V39.0998H42.6998C45.8998 39.1998 48.4998 38.3998 50.3998 36.5998Z" fill="white"/>
<path d="M57.5998 54.1C58.5998 54.1 59.3998 53.3 59.3998 52.3C59.3998 51.3 58.5998 50.5 57.5998 50.5C56.5998 50.5 55.7998 51.3 55.7998 52.3C55.7998 53.2 56.5998 54.1 57.5998 54.1Z" fill="white"/>
<path d="M66.3998 67.5C66.6998 68 67.2998 68.2 67.7998 67.9C68.2998 67.6 68.3998 67 68.1998 66.5L65.0998 61.2C64.8998 60.9 64.5998 60.7 64.1998 60.7H59.6998V59.3H62.9998C63.3998 59.3 63.7998 58.9 63.7998 58.5C63.7998 58 63.3998 57.7 62.9998 57.7H59.5998L59.4998 56.2C59.3998 55.3 58.5998 54.5 57.6998 54.6C56.6998 54.7 55.9998 55.5 56.0998 56.4L56.3998 61.9C56.4998 62.9 57.2998 63.5 58.1998 63.5H64.0998L66.3998 67.5Z" fill="white"/>
<path d="M58.8 69.5999C55.8 69.5999 53.4 67.1999 53.4 64.1999C53.4 62.5999 54.1 61.0999 55.3 60.0999L55.2 58.3999C53.3 59.5999 52 61.6999 52 64.0999C52 67.7999 55 70.8999 58.8 70.8999C61.6 70.8999 63.9 69.1999 65 66.8999L64 65.1999C63.5 67.6999 61.4 69.5999 58.8 69.5999Z" fill="white"/>
</svg>
