<svg width="80" height="80" viewBox="0 0 80 80" fill="none" xmlns="http://www.w3.org/2000/svg">
<path d="M74 0H6C2.68629 0 0 2.68629 0 6V74C0 77.3137 2.68629 80 6 80H74C77.3137 80 80 77.3137 80 74V6C80 2.68629 77.3137 0 74 0Z" fill="white"/>
<path d="M73.271 0.5H6.5C3.18629 0.5 0.5 3.18629 0.5 6.5V73.271C0.5 76.5847 3.18629 79.271 6.5 79.271H73.271C76.5847 79.271 79.271 76.5847 79.271 73.271V6.5C79.271 3.18629 76.5847 0.5 73.271 0.5Z" stroke="black"/>
<path d="M5.80301 3.00001C5.43469 2.99922 5.06984 3.07118 4.72941 3.21176C4.38898 3.35235 4.07966 3.55878 3.81922 3.81922C3.55878 4.07966 3.35235 4.38898 3.21176 4.72941C3.07118 5.06984 2.99922 5.43469 3.00001 5.80301V74.197C2.99922 74.5653 3.07118 74.9302 3.21176 75.2706C3.35235 75.611 3.55878 75.9204 3.81922 76.1808C4.07966 76.4412 4.38898 76.6477 4.72941 76.7883C5.06984 76.9288 5.43469 77.0008 5.80301 77H13.837V68.777H16.455V77H29.535V26.92H22.996L33.458 8.60601L43.924 26.92H37.383V39.485C39.7678 38.1044 42.4754 37.3792 45.231 37.383H49.155V30.845L67.47 41.307L49.155 51.773V45.23H45.231C44.2003 45.23 43.1797 45.433 42.2275 45.8275C41.2752 46.222 40.41 46.8001 39.6813 47.529C38.9525 48.2578 38.3745 49.1231 37.9801 50.0754C37.5858 51.0277 37.3829 52.0483 37.383 53.079V77H50.466V68.777H53.08V77H74.197C74.5653 77.0008 74.9302 76.9288 75.2706 76.7883C75.611 76.6477 75.9204 76.4412 76.1808 76.1808C76.4412 75.9204 76.6477 75.611 76.7883 75.2706C76.9288 74.9302 77.0008 74.5653 77 74.197V5.80301C77.0008 5.43469 76.9288 5.06984 76.7883 4.72941C76.6477 4.38898 76.4412 4.07966 76.1808 3.81922C75.9204 3.55878 75.611 3.35235 75.2706 3.21176C74.9302 3.07118 74.5653 2.99922 74.197 3.00001H5.80301ZM13.837 37.383H16.455V45.231H13.837V37.383ZM13.837 47.848H16.455V55.697H13.837V47.848ZM13.837 58.314H16.455V66.163H13.837V58.314ZM50.466 58.314H53.08V66.163H50.466V58.314Z" fill="#0D69E1"/>
</svg>
