<svg width="80" height="80" viewBox="0 0 80 80" fill="none" xmlns="http://www.w3.org/2000/svg">
<path d="M73 1H6C2.68629 1 0 3.68629 0 7V73C0 76.3137 2.68629 79 6 79H73C76.3137 79 79 76.3137 79 73V7C79 3.68629 76.3137 1 73 1Z" fill="white"/>
<path d="M73.271 0.5H6.5C3.18629 0.5 0.5 3.18629 0.5 6.5V73.271C0.5 76.5847 3.18629 79.271 6.5 79.271H73.271C76.5847 79.271 79.271 76.5847 79.271 73.271V6.5C79.271 3.18629 76.5847 0.5 73.271 0.5Z" stroke="black"/>
<path d="M5.80301 3.00001C5.43469 2.99922 5.06984 3.07118 4.72941 3.21176C4.38898 3.35235 4.07966 3.55878 3.81922 3.81922C3.55878 4.07966 3.35235 4.38898 3.21176 4.72941C3.07118 5.06984 2.99922 5.43469 3.00001 5.80301V74.197C2.99922 74.5653 3.07118 74.9302 3.21176 75.2706C3.35235 75.611 3.55878 75.9204 3.81922 76.1808C4.07966 76.4412 4.38898 76.6477 4.72941 76.7883C5.06984 76.9288 5.43469 77.0008 5.80301 77H11.223V68.777H13.837V77H19.072V34.769C19.072 26.099 26.1 19.072 34.769 19.072H55.697V12.53L74.011 22.996L55.697 33.458V26.92H34.769C33.7382 26.9199 32.7175 27.1228 31.7652 27.5172C30.8128 27.9116 29.9475 28.4898 29.2186 29.2186C28.4898 29.9475 27.9116 30.8128 27.5172 31.7652C27.1228 32.7175 26.9199 33.7382 26.92 34.769V77H50.466V68.777H53.08V77H74.197C74.5653 77.0008 74.9302 76.9288 75.2706 76.7883C75.611 76.6477 75.9204 76.4412 76.1808 76.1808C76.4412 75.9204 76.6477 75.611 76.7883 75.2706C76.9288 74.9302 77.0008 74.5653 77 74.197V5.80301C77.0008 5.43469 76.9288 5.06984 76.7883 4.72941C76.6477 4.38898 76.4412 4.07966 76.1808 3.81922C75.9204 3.55878 75.611 3.35235 75.2706 3.21176C74.9302 3.07118 74.5653 2.99922 74.197 3.00001H5.80301ZM11.223 37.383H13.837V45.231H11.223V37.383ZM50.466 37.383H53.08V45.231H50.466V37.383ZM11.223 47.848H13.837V55.697H11.223V47.848ZM50.466 47.848H53.08V55.697H50.466V47.848ZM11.223 58.314H13.837V66.163H11.223V58.314ZM50.466 58.314H53.08V66.163H50.466V58.314Z" fill="#0D69E1"/>
</svg>
