<svg width="80" height="80" viewBox="0 0 80 80" fill="none" xmlns="http://www.w3.org/2000/svg">
<path d="M73.7722 0.885986H6.88623C3.57252 0.885986 0.88623 3.57228 0.88623 6.88599V72.886C0.88623 76.1997 3.57252 78.886 6.88623 78.886H73.7722C77.0859 78.886 79.7722 76.1997 79.7722 72.886V6.88599C79.7722 3.57228 77.0859 0.885986 73.7722 0.885986Z" fill="white"/>
<path d="M73.271 0.5H6.5C3.18629 0.5 0.5 3.18629 0.5 6.5V73.271C0.5 76.5847 3.18629 79.271 6.5 79.271H73.271C76.5847 79.271 79.271 76.5847 79.271 73.271V6.5C79.271 3.18629 76.5847 0.5 73.271 0.5Z" stroke="black"/>
<path d="M5.68924 2.88599C5.32092 2.8852 4.95607 2.95716 4.61564 3.09775C4.27521 3.23833 3.96589 3.44477 3.70545 3.70521C3.44501 3.96565 3.23858 4.27496 3.09799 4.6154C2.95741 4.95583 2.88545 5.32068 2.88624 5.68899V74.083C2.88545 74.4513 2.95741 74.8162 3.09799 75.1566C3.23858 75.497 3.44501 75.8063 3.70545 76.0668C3.96589 76.3272 4.27521 76.5337 4.61564 76.6742C4.95607 76.8148 5.32092 76.8868 5.68924 76.886H13.7232V68.663H16.3412V76.886H21.5712V53.919C21.5712 49.756 23.2282 45.766 26.1722 42.822L50.3272 18.667L45.7022 14.042L66.0492 8.49199L60.4992 28.842L55.8772 24.217L31.7192 48.369C30.2473 49.8409 29.4203 51.8373 29.4202 53.919V76.886H50.3522V68.663H52.9662V76.886H74.0832C74.4516 76.8868 74.8164 76.8148 75.1568 76.6742C75.4973 76.5337 75.8066 76.3272 76.067 76.0668C76.3275 75.8063 76.5339 75.497 76.6745 75.1566C76.8151 74.8162 76.887 74.4513 76.8862 74.083V5.68899C76.887 5.32068 76.8151 4.95583 76.6745 4.6154C76.5339 4.27496 76.3275 3.96565 76.067 3.70521C75.8066 3.44477 75.4973 3.23833 75.1568 3.09775C74.8164 2.95716 74.4516 2.8852 74.0832 2.88599H5.68924ZM13.7232 37.269H16.3412V45.117H13.7232V37.269ZM50.3522 37.269H52.9662V45.117H50.3522V37.269ZM13.7232 47.734H16.3412V55.583H13.7232V47.734ZM50.3522 47.734H52.9662V55.583H50.3522V47.734ZM13.7232 58.2H16.3412V66.049H13.7232V58.2ZM50.3522 58.2H52.9662V66.049H50.3522V58.2Z" fill="#0D69E1"/>
</svg>
