<svg width="105" height="138" viewBox="0 0 105 138" fill="none" xmlns="http://www.w3.org/2000/svg">
<path d="M7.3 1H97.7C99.3709 1 100.973 1.66375 102.155 2.84523C103.336 4.02671 104 5.62914 104 7.3V130.7C104 132.371 103.336 133.973 102.155 135.155C100.973 136.336 99.3709 137 97.7 137H7.3C5.62914 137 4.02671 136.336 2.84523 135.155C1.66375 133.973 1 132.371 1 130.7V7.3C1 5.62914 1.66375 4.02671 2.84523 2.84523C4.02671 1.66375 5.62914 1 7.3 1Z" fill="white"/>
<path d="M6 3H100C100.53 3 101.039 3.21071 101.414 3.58579C101.789 3.96086 102 4.46957 102 5V133.267C102 133.797 101.789 134.306 101.414 134.681C101.039 135.056 100.53 135.267 100 135.267H6C5.46957 135.267 4.96086 135.056 4.58578 134.681C4.21071 134.306 4 133.797 4 133.267V5C4 4.46957 4.21071 3.96086 4.58578 3.58579C4.96086 3.21071 5.46957 3 6 3Z" fill="#FFCC00"/>
<path fill-rule="evenodd" clip-rule="evenodd" d="M4.5 0.5H100.5C101.561 0.5 102.578 0.921427 103.328 1.67157C104.079 2.42172 104.5 3.43913 104.5 4.5V133.5C104.5 134.561 104.079 135.578 103.328 136.328C102.578 137.079 101.561 137.5 100.5 137.5H4.5C3.43913 137.5 2.42172 137.079 1.67157 136.328C0.921424 135.578 0.5 134.561 0.5 133.5V4.5C0.5 3.43913 0.921424 2.42172 1.67157 1.67157C2.42172 0.921427 3.43913 0.5 4.5 0.5Z" stroke="black"/>
<path d="M5.66702 3C5.36003 2.99947 5.05597 3.05962 4.7723 3.17697C4.48862 3.29433 4.23093 3.46659 4.01404 3.68385C3.79715 3.90111 3.62533 4.15909 3.50846 4.44297C3.39159 4.72684 3.33197 5.03101 3.33303 5.338V132.928C3.33184 133.235 3.39136 133.539 3.50817 133.823C3.62499 134.107 3.79679 134.365 4.01369 134.583C4.23059 134.8 4.48832 134.973 4.77206 135.09C5.0558 135.207 5.35995 135.268 5.66702 135.267H99.667C99.9738 135.267 100.278 135.206 100.561 135.089C100.844 134.971 101.102 134.799 101.318 134.582C101.535 134.365 101.707 134.107 101.824 133.823C101.941 133.54 102.001 133.236 102 132.929V5.338C102.001 5.0311 101.941 4.72701 101.825 4.4432C101.708 4.15939 101.536 3.90146 101.319 3.68421C101.103 3.46696 100.845 3.29468 100.561 3.17726C100.278 3.05985 99.9739 2.99961 99.667 3H5.66702ZM5.66702 3.668H55.444V40.743C55.4427 41.1814 55.528 41.6157 55.6949 42.0211C55.8619 42.4265 56.1072 42.7949 56.4169 43.1052C56.7265 43.4155 57.0944 43.6616 57.4995 43.8294C57.9045 43.9972 58.3386 44.0834 58.777 44.083H66C66.4384 44.0834 66.8726 43.9972 67.2776 43.8294C67.6826 43.6616 68.0505 43.4155 68.3602 43.1052C68.6698 42.7949 68.9152 42.4265 69.0821 42.0211C69.2491 41.6157 69.3343 41.1814 69.333 40.743V3.668H99.667C100.59 3.668 101.333 4.413 101.333 5.338V132.928C101.333 133.854 100.59 134.599 99.667 134.599H69.333V97.525C69.3345 97.0865 69.2493 96.6521 69.0824 96.2466C68.9155 95.8411 68.6702 95.4726 68.3605 95.1622C68.0508 94.8517 67.6829 94.6055 67.2778 94.4377C66.8727 94.2698 66.4385 94.1836 66 94.184H58.777C58.3386 94.1836 57.9045 94.2698 57.4995 94.4376C57.0944 94.6054 56.7265 94.8515 56.4169 95.1618C56.1072 95.4721 55.8619 95.8405 55.6949 96.2459C55.528 96.6513 55.4427 97.0856 55.444 97.524V134.599H42.944V94.184C42.944 92.338 43.677 90.571 44.979 89.266L64.425 69.78L69.335 74.7L75.098 53.181L53.621 58.954L58.533 63.874L39.085 83.36C36.2188 86.233 34.6094 90.1257 34.61 94.184V134.599H5.66702C5.44786 134.599 5.23084 134.556 5.0284 134.472C4.82595 134.388 4.64205 134.265 4.48722 134.11C4.33238 133.955 4.20965 133.77 4.12606 133.568C4.04246 133.365 3.99963 133.148 4.00003 132.929V5.338C4.00003 4.413 4.74302 3.668 5.66702 3.668Z" fill="black"/>
<path d="M29.7778 19.1331C20.8028 19.1331 13.5278 26.4011 13.5278 35.3671C13.5278 44.3321 20.8028 51.6001 29.7778 51.6001C38.7518 51.6001 46.0278 44.3321 46.0278 35.3671C46.0278 26.4011 38.7518 19.1331 29.7778 19.1331ZM18.3478 32.0001H41.2078C41.5178 32.0001 41.7688 32.2511 41.7688 32.5621V38.1721C41.769 38.2459 41.7545 38.3189 41.7263 38.3871C41.6981 38.4553 41.6567 38.5173 41.6045 38.5694C41.5522 38.6215 41.4902 38.6628 41.422 38.6909C41.3537 38.719 41.2806 38.7333 41.2068 38.7331H18.3478C18.274 38.7332 18.2009 38.7187 18.1326 38.6905C18.0644 38.6623 18.0024 38.621 17.9501 38.5687C17.8979 38.5165 17.8565 38.4545 17.8283 38.3863C17.8001 38.318 17.7857 38.2449 17.7858 38.1711V32.5621C17.7858 32.2521 18.0368 32.0001 18.3478 32.0001Z" fill="#FF0000"/>
<path d="M17.7861 32H41.7691V38.733H17.7861V32Z" fill="white"/>
</svg>
