<svg width="92" height="82" viewBox="0 0 92 82" fill="none" xmlns="http://www.w3.org/2000/svg">
<path fill-rule="evenodd" clip-rule="evenodd" d="M51.3411 4.20725C54.6081 9.87025 57.8071 15.4932 62.5581 23.8993L67.3181 32.3242C77.5301 50.3923 83.6481 60.9883 90.3881 72.0903C92.6161 75.7583 89.4641 81.0863 85.2131 81.0863H6.41113C2.16013 81.0863 -0.991867 75.7583 1.23513 72.0903C7.97313 60.9913 14.0751 50.4203 24.3031 32.3273L28.9351 24.1273C33.7631 15.5873 36.9831 9.92725 40.2831 4.20725C43.1351 -0.73575 48.4901 -0.73575 51.3411 4.20725Z" stroke="#0C0E0F"/>
<path d="M7.4868 71.0572L7.4838 71.0632L6.9278 72.0302L6.91181 72.0582C6.42381 72.9212 5.92381 73.7772 5.41181 74.6262C5.19181 74.9882 5.91181 76.2002 6.41181 76.2002H85.2118C85.7118 76.2002 86.4318 74.9882 86.2118 74.6252C85.7758 73.9072 85.4398 73.3302 84.7098 72.0552L84.6898 72.0192C84.4238 71.5562 84.2938 71.3292 84.1358 71.0572L47.1088 6.64822C46.1908 5.05722 45.4338 5.05721 44.5178 6.64522L7.4868 71.0572Z" fill="white" stroke="#FF0000" stroke-width="6"/>
<path d="M52.7361 70.6092H42.7501V49.3882H30.2671V45.6442H42.7501V28.1682H52.7361V70.6092Z" fill="black"/>
</svg>
