<svg width="82" height="82" viewBox="0 0 82 82" fill="none" xmlns="http://www.w3.org/2000/svg">
<path d="M4 0H78C79.0609 0 80.0783 0.421427 80.8284 1.17157C81.5786 1.92172 82 2.93913 82 4V78C82 79.0609 81.5786 80.0783 80.8284 80.8284C80.0783 81.5786 79.0609 82 78 82H4C2.93913 82 1.92172 81.5786 1.17157 80.8284C0.421427 80.0783 0 79.0609 0 78V4C0 2.93913 0.421427 1.92172 1.17157 1.17157C1.92172 0.421427 2.93913 0 4 0Z" fill="white"/>
<path fill-rule="evenodd" clip-rule="evenodd" d="M5.61377 1.61401H76.3848C77.4456 1.61401 78.4631 2.03544 79.2132 2.78559C79.9633 3.53573 80.3848 4.55315 80.3848 5.61401V76.385C80.3848 77.4459 79.9633 78.4633 79.2132 79.2134C78.4631 79.9636 77.4456 80.385 76.3848 80.385H5.61377C4.5529 80.385 3.53549 79.9636 2.78534 79.2134C2.0352 78.4633 1.61377 77.4459 1.61377 76.385V5.61401C1.61377 4.55315 2.0352 3.53573 2.78534 2.78559C3.53549 2.03544 4.5529 1.61401 5.61377 1.61401Z" stroke="black"/>
<path d="M4 75.197C4 75.9404 4.29532 76.6534 4.82098 77.179C5.34664 77.7047 6.0596 78 6.803 78H75.197C75.9404 78 76.6534 77.7047 77.179 77.179C77.7047 76.6534 78 75.9404 78 75.197V6.803C78 6.0596 77.7047 5.34664 77.179 4.82098C76.6534 4.29532 75.9404 4 75.197 4H6.803C6.0596 4 5.34664 4.29532 4.82098 4.82098C4.29532 5.34664 4 6.0596 4 6.803V75.197ZM7.512 64.405C7.512 64.209 7.564 64.015 7.662 63.845L40.03 7.785C40.1284 7.6145 40.2699 7.4729 40.4403 7.37446C40.6108 7.27601 40.8042 7.22418 41.001 7.22418C41.1978 7.22418 41.3912 7.27601 41.5617 7.37446C41.7321 7.4729 41.8736 7.6145 41.972 7.785L74.339 63.845C74.4378 64.0154 74.49 64.2088 74.4902 64.4058C74.4904 64.6028 74.4387 64.7964 74.3402 64.967C74.2417 65.1376 74.1 65.2792 73.9293 65.3775C73.7586 65.4758 73.565 65.5274 73.368 65.527H8.633C8.48575 65.527 8.33995 65.498 8.20393 65.4416C8.06792 65.3851 7.94436 65.3025 7.84033 65.1982C7.7363 65.094 7.65385 64.9703 7.59768 64.8342C7.54151 64.6981 7.51174 64.5522 7.512 64.405Z" fill="#0D69E1"/>
<path d="M21.4689 56.922L16.5859 64.246H23.4219L26.3519 56.922H21.4689ZM38.8029 56.922L37.8259 64.246H44.1739L43.1969 56.922H38.8029ZM55.6479 56.922L58.5779 64.246H65.4139L60.5309 56.922H55.6479ZM33.5719 59.904C33.4269 60.461 33.068 60.9383 32.5731 61.2322C32.0782 61.5261 31.4874 61.6128 30.9289 61.4736C30.3704 61.3344 29.8894 60.9804 29.5904 60.4886C29.2914 59.9968 29.1985 59.4069 29.3319 58.847L32.5319 46.014C32.5722 45.852 32.6559 45.704 32.7739 45.586L38.5589 39.802V27.579C38.5589 27.168 38.7779 26.789 39.1329 26.583L42.1019 24.869C42.4517 24.6674 42.8483 24.5613 43.2519 24.5613C43.6556 24.5613 44.0522 24.6674 44.4019 24.869L51.7249 29.098C52.0743 29.2997 52.3645 29.5897 52.5663 29.939C52.7682 30.2883 52.8746 30.6845 52.8749 31.088V39.138C52.8749 39.5955 52.6932 40.0342 52.3697 40.3577C52.0462 40.6812 51.6074 40.863 51.1499 40.863C50.6924 40.863 50.2537 40.6812 49.9302 40.3577C49.6067 40.0342 49.4249 39.5955 49.4249 39.138V32.285C49.425 32.1234 49.3825 31.9647 49.3017 31.8248C49.221 31.6849 49.1048 31.5687 48.9649 31.488L45.8599 29.695V39.345C45.8599 39.65 45.7389 39.942 45.5229 40.158L36.3409 49.34C36.2229 49.458 36.1393 49.606 36.0989 49.768L33.5719 59.904Z" fill="black"/>
<path d="M45.2198 42.087L42.0218 45.286L50.7868 60.468C51.081 60.9609 51.5573 61.3182 52.1128 61.4627C52.6684 61.6072 53.2584 61.5273 53.7555 61.2403C54.2526 60.9533 54.6168 60.4821 54.7693 59.9288C54.9219 59.3754 54.8506 58.7842 54.5708 58.283L45.2198 42.087ZM37.4088 37.323V32.444L30.8418 39.011C30.6806 39.171 30.5526 39.3613 30.4651 39.5708C30.3777 39.7804 30.3324 40.0052 30.332 40.2323C30.3316 40.4594 30.3761 40.6843 30.4628 40.8942C30.5496 41.1041 30.6769 41.2947 30.8375 41.4553C30.9981 41.6158 31.1889 41.7431 31.3988 41.8297C31.6087 41.9164 31.8336 41.9608 32.0607 41.9603C32.2878 41.9598 32.5126 41.9145 32.7221 41.8269C32.9317 41.7393 33.1218 41.6113 33.2818 41.45L37.4088 37.323ZM36.1118 21.537C36.1118 23.35 37.3998 24.963 39.0248 24.963C40.8118 24.963 43.8998 23.15 43.8998 20.563C43.8998 18.713 42.3628 17.363 40.6498 17.363C37.9248 17.363 36.1118 19.45 36.1118 21.537Z" fill="black"/>
</svg>
