<svg width="82" height="82" viewBox="0 0 82 82" fill="none" xmlns="http://www.w3.org/2000/svg">
<path d="M76 0H6C2.68629 0 0 2.68629 0 6V76C0 79.3137 2.68629 82 6 82H76C79.3137 82 82 79.3137 82 76V6C82 2.68629 79.3137 0 76 0Z" fill="white"/>
<path d="M74.5 1.5H7.5C4.18629 1.5 1.5 4.18629 1.5 7.5V74.5C1.5 77.8137 4.18629 80.5 7.5 80.5H74.5C77.8137 80.5 80.5 77.8137 80.5 74.5V7.5C80.5 4.18629 77.8137 1.5 74.5 1.5Z" stroke="black"/>
<path d="M6.80301 4.00001C6.43469 3.99922 6.06984 4.07118 5.72941 4.21176C5.38898 4.35235 5.07966 4.55878 4.81922 4.81922C4.55878 5.07966 4.35235 5.38898 4.21176 5.72941C4.07118 6.06984 3.99922 6.43469 4.00001 6.80301V39.693H78V26.61H27.92V33.152L9.60601 22.686L27.92 12.223V18.761H78V6.80301C78.0008 6.43469 77.9288 6.06984 77.7883 5.72941C77.6477 5.38898 77.4412 5.07966 77.1808 4.81922C76.9204 4.55878 76.611 4.35235 76.2706 4.21176C75.9302 4.07118 75.5653 3.99922 75.197 4.00001H6.80301ZM4.00001 42.307V47.8H31.19C32.124 47.8 32.986 48.3 33.453 49.11L38.033 57.04C38.262 57.437 38.383 57.887 38.383 58.346V67.948C38.3839 68.2915 38.3169 68.6318 38.1859 68.9493C38.0548 69.2668 37.8623 69.5553 37.6194 69.7981C37.3765 70.0409 37.0879 70.2333 36.7704 70.3643C36.4528 70.4952 36.1125 70.5621 35.769 70.561H34.459C34.4593 69.7023 34.2903 68.8519 33.9618 68.0585C33.6332 67.2651 33.1516 66.5442 32.5443 65.937C31.937 65.3298 31.2161 64.8483 30.4226 64.5199C29.6291 64.1914 28.7787 64.0226 27.92 64.023C26.1857 64.0227 24.5222 64.7114 23.2956 65.9375C22.0689 67.1636 21.3795 68.8267 21.379 70.561H4.00001V75.197C3.99922 75.5653 4.07118 75.9302 4.21176 76.2706C4.35235 76.611 4.55878 76.9204 4.81922 77.1808C5.07966 77.4412 5.38898 77.6477 5.72941 77.7883C6.06984 77.9288 6.43469 78.0008 6.80301 78H75.197C75.5653 78.0008 75.9302 77.9288 76.2706 77.7883C76.611 77.6477 76.9204 77.4412 77.1808 77.1808C77.4412 76.9204 77.6477 76.611 77.7883 76.2706C77.9288 75.9302 78.0008 75.5653 78 75.197V42.307H4.00001ZM4.00001 49.633V57.482H9.60601C10.331 57.482 10.913 56.9 10.913 56.175V50.94C10.913 50.216 10.331 49.633 9.60601 49.633H4.00001ZM14.837 49.633C14.113 49.633 13.53 50.216 13.53 50.94V56.175C13.53 56.9 14.113 57.482 14.837 57.482H22.686C23.41 57.482 23.996 56.9 23.996 56.175V50.94C23.996 50.216 23.41 49.633 22.686 49.633H14.837ZM27.92 49.633C27.196 49.633 26.61 50.216 26.61 50.94V56.175C26.61 56.9 27.196 57.482 27.92 57.482H33.908C34.1378 57.4825 34.3636 57.4223 34.5627 57.3076C34.7618 57.1929 34.9271 57.0277 35.0419 56.8287C35.1568 56.6297 35.2171 56.4039 35.2167 56.1741C35.2164 55.9443 35.1554 55.7187 35.04 55.52L32.02 50.289C31.9056 50.0898 31.7407 49.9243 31.542 49.8092C31.3433 49.694 31.1177 49.6332 30.888 49.633H27.92ZM54.08 50.155L72.394 60.621L54.08 71.087V64.545H41V56.697H54.08V50.155ZM27.92 65.33C28.6087 65.3184 29.2928 65.4428 29.9333 65.6962C30.5737 65.9496 31.1578 66.3269 31.6522 66.8064C32.1465 67.286 32.5413 67.8585 32.8139 68.491C33.0865 69.1235 33.2316 69.8036 33.2408 70.4923C33.25 71.1809 33.1232 71.8647 32.8676 72.5042C32.612 73.1438 32.2326 73.7266 31.7513 74.2193C31.27 74.7119 30.6962 75.1047 30.0627 75.3751C29.4293 75.6455 28.7487 75.7882 28.06 75.795C26.6754 75.8087 25.3417 75.273 24.3513 74.3054C23.3608 73.3377 22.7942 72.0169 22.7757 70.6323C22.7572 69.2477 23.2882 67.9122 24.2524 66.9183C25.2167 65.9245 26.5355 65.3534 27.92 65.33ZM27.92 67.948C27.5766 67.9477 27.2365 68.0151 26.9191 68.1463C26.6018 68.2775 26.3133 68.4699 26.0703 68.7125C25.8273 68.9551 25.6345 69.2433 25.5028 69.5604C25.3712 69.8776 25.3033 70.2176 25.303 70.561C25.3027 70.9044 25.3701 71.2445 25.5013 71.5619C25.6325 71.8792 25.8249 72.1677 26.0675 72.4107C26.3101 72.6537 26.5983 72.8465 26.9154 72.9782C27.2326 73.1098 27.5726 73.1777 27.916 73.178C28.6095 73.1785 29.2749 72.9035 29.7657 72.4135C30.2565 71.9235 30.5325 71.2586 30.533 70.565C30.5335 69.8715 30.2585 69.2061 29.7685 68.7153C29.2785 68.2246 28.6135 67.9485 27.92 67.948Z" fill="#0D69E1"/>
</svg>
