<svg width="42" height="82" viewBox="0 0 42 82" fill="none" xmlns="http://www.w3.org/2000/svg">
<path d="M35.911 1H6.013C4.68468 1.00396 3.41191 1.53338 2.47264 2.47264C1.53338 3.4119 1.00396 4.68469 1 6.013V75.836C1.00396 77.1643 1.53338 78.4371 2.47264 79.3764C3.41191 80.3156 4.68468 80.845 6.013 80.849H35.91C37.2385 80.8453 38.5115 80.316 39.451 79.3767C40.3905 78.4374 40.92 77.1645 40.924 75.836V6.013C40.92 4.68451 40.3905 3.41158 39.451 2.47229C38.5115 1.533 37.2395 1.00369 35.911 1Z" fill="white"/>
<path fill-rule="evenodd" clip-rule="evenodd" d="M35.911 0.5C38.945 0.5 41.425 2.98 41.425 6.013V75.836C41.425 78.869 38.945 81.349 35.911 81.349H6.013C2.98 81.349 0.5 78.869 0.5 75.836V6.013C0.5 2.98 2.98 0.5 6.013 0.5H35.911Z" stroke="black"/>
<path d="M35.9099 2.12793C36.9049 2.13056 37.8612 2.51376 38.5826 3.19895C39.3041 3.88415 39.736 4.81941 39.7899 5.81293L39.7949 6.01293V75.8359C39.7923 76.8309 39.4091 77.7872 38.7239 78.5086C38.0387 79.2301 37.1035 79.6621 36.1099 79.7159L35.9099 79.7209H6.01293C5.01802 79.7181 4.06189 79.3348 3.34048 78.6496C2.61908 77.9645 2.18705 77.0294 2.13293 76.0359L2.12793 75.8359V6.01293C2.1308 5.01803 2.51408 4.06189 3.19923 3.34048C3.88437 2.61908 4.81949 2.18705 5.81293 2.13293L6.01293 2.12793H35.9099ZM35.9099 3.38093H6.01293C5.31553 3.38304 4.64729 3.66101 4.15416 4.15415C3.66102 4.64729 3.38304 5.31553 3.38093 6.01293V75.8359C3.38304 76.5333 3.66102 77.2016 4.15416 77.6947C4.64729 78.1878 5.31553 78.4658 6.01293 78.4679H35.9099C36.6073 78.4658 37.2756 78.1878 37.7687 77.6947C38.2618 77.2016 38.5398 76.5333 38.5419 75.8359V6.01293C38.5398 5.31553 38.2618 4.64729 37.7687 4.15415C37.2756 3.66101 36.6073 3.38304 35.9099 3.38093Z" fill="black"/>
<path d="M3.38088 42.938L38.5459 63.049V54.709L3.37988 34.6V42.939L3.38088 42.938ZM3.38088 27.139L38.5459 47.251V38.911L3.38088 18.801V27.139Z" fill="#FF0000"/>
</svg>
