<svg width="42" height="82" viewBox="0 0 42 82" fill="none" xmlns="http://www.w3.org/2000/svg">
<path d="M5.978 1H35.668C38.406 1 40.646 3.256 40.646 6.013V75.836C40.646 78.593 38.406 80.849 35.668 80.849H5.978C3.24 80.849 1 78.593 1 75.836V6.013C1 3.256 3.24 1 5.978 1Z" fill="white"/>
<path fill-rule="evenodd" clip-rule="evenodd" d="M5.978 0.5H35.668C38.683 0.5 41.146 2.98 41.146 6.013V75.836C41.146 78.869 38.683 81.349 35.668 81.349H5.978C2.963 81.349 0.5 78.869 0.5 75.836V6.013C0.501 2.98 2.963 0.5 5.978 0.5Z" stroke="black"/>
<path d="M35.6681 2.12793C37.7901 2.12793 39.5261 3.87593 39.5261 6.01293V75.8359C39.5261 77.9729 37.7901 79.7209 35.6681 79.7209H5.97812C3.85712 79.7209 2.12012 77.9729 2.12012 75.8359V6.01293C2.12012 3.87593 3.85712 2.12793 5.97812 2.12793H35.6681ZM35.6681 3.38093H5.97812C4.59612 3.38093 3.45612 4.47693 3.37012 5.84693L3.36512 6.01293V75.8359C3.36499 76.5023 3.61754 77.1439 4.07184 77.6315C4.52613 78.119 5.14839 78.4161 5.81312 78.4629L5.97812 78.4679H35.6681C37.0501 78.4679 38.1901 77.3719 38.2761 76.0019L38.2811 75.8359V6.01293C38.2812 5.34655 38.0287 4.70491 37.5744 4.21739C37.1201 3.72988 36.4978 3.43275 35.8331 3.38593L35.6681 3.38093Z" fill="black"/>
<path d="M38.2818 19.2189L3.36377 39.3299V30.9899L38.2808 10.8799L38.2818 19.2189ZM38.2818 35.0169L3.36377 55.1279V46.7879L38.2818 26.6779V35.0169ZM38.2818 50.8579L3.36377 70.9699V62.6299L38.2808 42.5179L38.2818 50.8579Z" fill="#FF0000"/>
</svg>
