<svg width="80" height="80" viewBox="0 0 80 80" fill="none" xmlns="http://www.w3.org/2000/svg">
<path d="M74 0H6C2.68629 0 0 2.68629 0 6V74C0 77.3137 2.68629 80 6 80H74C77.3137 80 80 77.3137 80 74V6C80 2.68629 77.3137 0 74 0Z" fill="white"/>
<path d="M73.3848 0.614014H6.61377C3.30006 0.614014 0.61377 3.30031 0.61377 6.61401V73.385C0.61377 76.6987 3.30006 79.385 6.61377 79.385H73.3848C76.6985 79.385 79.3848 76.6987 79.3848 73.385V6.61401C79.3848 3.30031 76.6985 0.614014 73.3848 0.614014Z" stroke="black"/>
<path d="M5.80301 3.00001C5.43469 2.99922 5.06984 3.07118 4.72941 3.21176C4.38898 3.35235 4.07966 3.55878 3.81922 3.81922C3.55878 4.07966 3.35235 4.38898 3.21176 4.72941C3.07118 5.06984 2.99922 5.43469 3.00001 5.80301V74.197C2.99922 74.5653 3.07118 74.9302 3.21176 75.2706C3.35235 75.611 3.55878 75.9204 3.81922 76.1808C4.07966 76.4412 4.38898 76.6477 4.72941 76.7883C5.06984 76.9288 5.43469 77.0008 5.80301 77H19.072V68.777H21.686V77H36.076V26.92H29.534L40 8.60601L50.466 26.92H43.924V77H58.314V68.777H60.928V77H74.197C74.5653 77.0008 74.9302 76.9288 75.2706 76.7883C75.611 76.6477 75.9204 76.4412 76.1808 76.1808C76.4412 75.9204 76.6477 75.611 76.7883 75.2706C76.9288 74.9302 77.0008 74.5653 77 74.197V5.80301C77.0008 5.43469 76.9288 5.06984 76.7883 4.72941C76.6477 4.38898 76.4412 4.07966 76.1808 3.81922C75.9204 3.55878 75.611 3.35235 75.2706 3.21176C74.9302 3.07118 74.5653 2.99922 74.197 3.00001H5.80301ZM19.072 37.383H21.686V45.231H19.072V37.383ZM58.314 37.383H60.928V45.231H58.314V37.383ZM19.072 47.848H21.686V55.697H19.072V47.848ZM58.314 47.848H60.928V55.697H58.314V47.848ZM19.072 58.314H21.686V66.163H19.072V58.314ZM58.314 58.314H60.928V66.163H58.314V58.314Z" fill="#0D69E1"/>
</svg>
