<svg width="80" height="80" viewBox="0 0 80 80" fill="none" xmlns="http://www.w3.org/2000/svg">
<path d="M73.7722 0.885986H6.88623C3.57252 0.885986 0.88623 3.57228 0.88623 6.88599V72.886C0.88623 76.1997 3.57252 78.886 6.88623 78.886H73.7722C77.0859 78.886 79.7722 76.1997 79.7722 72.886V6.88599C79.7722 3.57228 77.0859 0.885986 73.7722 0.885986Z" fill="white"/>
<path d="M73.271 0.5H6.5C3.18629 0.5 0.5 3.18629 0.5 6.5V73.271C0.5 76.5847 3.18629 79.271 6.5 79.271H73.271C76.5847 79.271 79.271 76.5847 79.271 73.271V6.5C79.271 3.18629 76.5847 0.5 73.271 0.5Z" stroke="black"/>
<path d="M5.68924 2.88599C5.32092 2.8852 4.95607 2.95716 4.61564 3.09775C4.27521 3.23833 3.96589 3.44477 3.70545 3.70521C3.44501 3.96565 3.23858 4.27496 3.09799 4.6154C2.95741 4.95583 2.88545 5.32068 2.88624 5.68899V74.083C2.88545 74.4513 2.95741 74.8162 3.09799 75.1566C3.23858 75.497 3.44501 75.8063 3.70545 76.0668C3.96589 76.3272 4.27521 76.5337 4.61564 76.6742C4.95607 76.8148 5.32092 76.8868 5.68924 76.886H11.1092V68.663H13.7232V76.886H18.9582V26.806H12.4162L22.8822 8.49199L33.3442 26.806H26.8062V53.761C29.1913 52.3802 31.8993 51.655 34.6552 51.659H55.5832C61.3632 51.659 66.0492 46.972 66.0492 41.193C66.0492 35.413 61.3622 30.731 55.5832 30.731V37.269L37.2692 26.806L55.5832 16.341V22.882C65.6972 22.882 73.8972 31.079 73.8972 41.192C73.8972 51.307 65.6972 59.507 55.5832 59.507H34.6552C33.6245 59.5069 32.6037 59.7098 31.6514 60.1042C30.6991 60.4986 29.8337 61.0767 29.1049 61.8056C28.376 62.5345 27.7978 63.3998 27.4034 64.3522C27.009 65.3045 26.8061 66.3252 26.8062 67.356V76.886H50.3522V68.663H52.9662V76.886H74.0832C74.4516 76.8868 74.8164 76.8148 75.1568 76.6742C75.4973 76.5337 75.8066 76.3272 76.067 76.0668C76.3275 75.8063 76.5339 75.497 76.6745 75.1566C76.8151 74.8162 76.887 74.4513 76.8862 74.083V5.68899C76.887 5.32068 76.8151 4.95583 76.6745 4.6154C76.5339 4.27496 76.3275 3.96565 76.067 3.70521C75.8066 3.44477 75.4973 3.23833 75.1568 3.09775C74.8164 2.95716 74.4516 2.8852 74.0832 2.88599H5.68924ZM11.1092 37.269H13.7232V45.117H11.1092V37.269ZM11.1092 47.734H13.7232V55.583H11.1092V47.734ZM11.1092 58.2H13.7232V66.049H11.1092V58.2ZM50.3522 60.814H52.9662V66.049H50.3522V60.814Z" fill="#0D69E1"/>
</svg>
