<svg xmlns="http://www.w3.org/2000/svg" width="100" height="86">
  <g fill="none" fill-rule="evenodd">
    <path d="M90 43c0 22.091-17.909 40-40 40S10 65.091 10 43 27.909 3 50 3s40 17.909 40 40z" fill="#FFF" fill-rule="nonzero" />
    <path d="M90.386 43c0 22.304-18.082 40.386-40.386 40.386C27.696 83.386 9.614 65.304 9.614 43 9.614 20.696 27.696 2.614 50 2.614c22.304 0 40.386 18.082 40.386 40.386z" stroke="#000" />
    <path id="disc" d="M50 5.286C29.171 5.286 12.286 22.17 12.286 43c0 20.829 16.885 37.714 37.714 37.714 20.829 0 37.714-16.885 37.714-37.714C87.714 22.171 70.83 5.286 50 5.286z" fill="#0D69E1" fill-rule="nonzero" />
    <g id="digits" fill="#FFF" fill-rule="evenodd"><g transform="translate(31.431895 30.861471) scale(0.109851)"><path fill-rule="evenodd" clip-rule="evenodd" d="M37.3119 104.578C6.31191 112.578 -27.0881 180.078 37.3119 214.078C52.8119 222.261 97.4119 222.878 109.812 214.078C151.312 196.578 168.812 131.078 104.812 104.578C142.312 94.0782 166.412 29.9782 104.812 5.57818C96.8119 -0.422008 53.3119 -1.922 39.8119 5.57805C7.81191 17.0779 -18.2881 72.9783 37.3119 104.578ZM73.3119 87.078C101.812 79.078 124.112 35.078 73.3119 31.078C23.8119 35.578 43.8119 81.078 73.3119 87.078ZM104.312 176.578C113.112 167.378 109.312 151.578 104.312 148.078C103.912 146.478 81.8119 125.578 73.3119 121.578C67.3119 121.578 49.8119 137.578 41.8119 145.578C33.4119 151.178 36.8119 170.745 41.8119 176.578C56.8119 194.078 93.8119 189.578 104.312 176.578Z" />
</g><g transform="translate(52.104012 30.861471) scale(0.109356)"><path fill-rule="evenodd" clip-rule="evenodd" d="M74 221.159C98.6667 222.492 147.9 201.459 147.5 106.659C147.1 11.8591 90.6667 -3.17424 62.5 1.15909C41.8333 5.32576 0.5 32.2591 0.5 106.659C0.5 199.659 41.5 221.159 74 221.159ZM109.5 106.659C111.5 172.259 86.6667 188.659 74 188.659C59 190.159 37.9 171.059 37.5 106.659C37.1 42.2591 61.6667 31.4924 74 34.1591C85 30.9924 107.5 41.0591 109.5 106.659Z" />
</g></g></g>
</svg>