<svg xmlns="http://www.w3.org/2000/svg" width="100" height="86"><g fill="none" fill-rule="evenodd"><path d="M90 43c0 22.091-17.909 40-40 40S10 65.091 10 43 27.909 3 50 3s40 17.909 40 40z" fill="#FFF" fill-rule="nonzero" /><path d="M89.133 43.133c0-21.539-17.46-39-39-39-21.539 0-39 17.461-39 39 0 21.54 17.461 39 39 39 21.54 0 39-17.46 39-39z" stroke="#000" stroke-width="2" /><g fill="#7F7F7F" fill-rule="nonzero"><g id="digits" fill="#7F7F7F" fill-rule="nonzero"><g transform="translate(29.424341 32.938203) scale(0.095372)"><path d="M0.642227 49.9999L42.6422 0.5H75.6422V210.5H44.6422V46.4999L12.1422 65L0.642227 49.9999Z" />
</g><g transform="translate(40.394711 32.938203) scale(0.093165)"><path d="M8.68118 0.5H125.181L113.181 37H40.1812V80.5C55.3478 74.3333 73.1812 60.5 107.181 80.5C128.681 99 130.181 108 133.681 121C136.481 131.4 133.515 149 131.681 156.5C128.515 174.667 109.881 211.9 60.6812 215.5C44.6812 215.5 13.6812 206.5 6.68118 200L0.681183 163.5C17.5145 174.833 58.3812 190.7 87.1812 163.5C95.1812 156 106.381 135.2 87.1812 112C67.9812 88.8 41.1812 100.667 30.1812 109.5H26.1812L8.68118 100V0.5Z" />
</g><g transform="translate(56.925870 32.938203) scale(0.090647)"><path fill-rule="evenodd" clip-rule="evenodd" d="M74 221.159C98.6667 222.492 147.9 201.459 147.5 106.659C147.1 11.8591 90.6667 -3.17424 62.5 1.15909C41.8333 5.32576 0.5 32.2591 0.5 106.659C0.5 199.659 41.5 221.159 74 221.159ZM109.5 106.659C111.5 172.259 86.6667 188.659 74 188.659C59 190.159 37.9 171.059 37.5 106.659C37.1 42.2591 61.6667 31.4924 74 34.1591C85 30.9924 107.5 41.0591 109.5 106.659Z" />
</g></g></g><path d="M50 4.333C28.645 4.333 11.333 21.645 11.333 43S28.645 81.667 50 81.667 88.667 64.355 88.667 43 71.355 4.333 50 4.333zm0 1.334c8.05 0 15.507 2.546 21.604 6.879L19.546 64.604A37.167 37.167 0 0 1 12.666 43C12.667 22.381 29.382 5.667 50 5.667zm22.546 7.579c.448.34.888.69 1.32 1.05l-52.57 52.57c-.36-.432-.71-.872-1.05-1.32l52.3-52.3zm2.208 1.808c.42.372.827.752 1.23 1.142L23.195 68.983c-.39-.402-.77-.81-1.142-1.229l52.7-52.7zm2.05 1.963c.39.402.77.81 1.142 1.229l-52.7 52.7c-.42-.372-.827-.752-1.23-1.142l52.788-52.787zm1.9 2.116c.36.433.71.873 1.05 1.321l-52.3 52.3c-.448-.34-.888-.69-1.32-1.05l52.57-52.57zm1.75 2.263A37.167 37.167 0 0 1 87.334 43c0 20.619-16.715 37.333-37.334 37.333a37.167 37.167 0 0 1-21.604-6.879l52.058-52.058z" fill="#000" fill-rule="nonzero" /></g></svg>