<svg xmlns="http://www.w3.org/2000/svg" width="100" height="86">
  <g fill="none" fill-rule="evenodd">
    <path d="M90 43c0 22.091-17.909 40-40 40S10 65.091 10 43 27.909 3 50 3s40 17.909 40 40z" fill="#FFF" fill-rule="nonzero" />
    <path d="M90.386 43c0 22.304-18.082 40.386-40.386 40.386C27.696 83.386 9.614 65.304 9.614 43 9.614 20.696 27.696 2.614 50 2.614c22.304 0 40.386 18.082 40.386 40.386z" stroke="#000" />
    <path id="disc" d="M50 5.286C29.171 5.286 12.286 22.17 12.286 43c0 20.829 16.885 37.714 37.714 37.714 20.829 0 37.714-16.885 37.714-37.714C87.714 22.171 70.83 5.286 50 5.286z" fill="#0D69E1" fill-rule="nonzero" />
    <g id="digits" fill="#FFF" fill-rule="evenodd"><g transform="translate(31.614381 30.789645) scale(0.109510)"><path fill-rule="evenodd" clip-rule="evenodd" d="M6.51013 177.5L10.5101 211L27.0101 218C40.8435 220.834 71.7101 224.8 84.5101 218C100.51 209.5 127.01 201 140.51 137.5C146.51 93.5004 143.61 4.50037 70.0101 0.500366C46.5101 1.16703 -0.289874 19.0004 0.510127 85.0004C0.922248 119 51.0101 169.3 105.01 122.5C107.51 157 76.1101 217.9 6.51013 177.5ZM105.01 85.0004C101.01 5.00037 27.0101 32.5004 37.0101 85.0004C41.5101 108.625 81.4101 121.8 105.01 85.0004Z" />
</g><g transform="translate(51.994358 30.789645) scale(0.110003)"><path fill-rule="evenodd" clip-rule="evenodd" d="M74 221.159C98.6667 222.492 147.9 201.459 147.5 106.659C147.1 11.8591 90.6667 -3.17424 62.5 1.15909C41.8333 5.32576 0.5 32.2591 0.5 106.659C0.5 199.659 41.5 221.159 74 221.159ZM109.5 106.659C111.5 172.259 86.6667 188.659 74 188.659C59 190.159 37.9 171.059 37.5 106.659C37.1 42.2591 61.6667 31.4924 74 34.1591C85 30.9924 107.5 41.0591 109.5 106.659Z" />
</g></g></g>
</svg>