<svg xmlns="http://www.w3.org/2000/svg" width="100" height="86">
  <g fill="none" fill-rule="evenodd">
    <path d="M90 43c0 22.091-17.909 40-40 40S10 65.091 10 43 27.909 3 50 3s40 17.909 40 40z" fill="#FFF" fill-rule="nonzero" />
    <path d="M90.386 43c0 22.304-18.082 40.386-40.386 40.386C27.696 83.386 9.614 65.304 9.614 43 9.614 20.696 27.696 2.614 50 2.614c22.304 0 40.386 18.082 40.386 40.386z" stroke="#000" />
    <path id="disc" d="M50 5.286C29.171 5.286 12.286 22.17 12.286 43c0 20.829 16.885 37.714 37.714 37.714 20.829 0 37.714-16.885 37.714-37.714C87.714 22.171 70.83 5.286 50 5.286z" fill="#0D69E1" fill-rule="nonzero" />
    <g id="digits" fill="#FFF" fill-rule="evenodd"><g transform="translate(31.926224 30.861471) scale(0.109851)"><path fill-rule="evenodd" clip-rule="evenodd" d="M129.718 43.0917L123.218 8.09167C109.385 2.59167 75.3179 -5.30833 49.7179 7.09167C24.1179 19.4917 12.7179 47.5917 10.2179 60.0917C2.88458 77.2583 -7.38208 124.092 10.2179 174.092C32.2179 236.592 93.7179 220.092 101.718 213.092C112.885 204.592 135.718 181.092 137.718 155.092C140.218 122.592 129.718 98.5917 115.718 92.0917C101.718 85.5917 80.7179 67.5917 37.2179 102.092C37.8846 67.7583 57.3179 7.89167 129.718 43.0917ZM37.2179 136.092C32.7179 197.592 110.718 214.592 105.718 136.092C102.718 116.092 74.8179 92.4917 37.2179 136.092Z" />
</g><g transform="translate(52.104012 30.861471) scale(0.109356)"><path fill-rule="evenodd" clip-rule="evenodd" d="M74 221.159C98.6667 222.492 147.9 201.459 147.5 106.659C147.1 11.8591 90.6667 -3.17424 62.5 1.15909C41.8333 5.32576 0.5 32.2591 0.5 106.659C0.5 199.659 41.5 221.159 74 221.159ZM109.5 106.659C111.5 172.259 86.6667 188.659 74 188.659C59 190.159 37.9 171.059 37.5 106.659C37.1 42.2591 61.6667 31.4924 74 34.1591C85 30.9924 107.5 41.0591 109.5 106.659Z" />
</g></g></g>
</svg>