<svg xmlns="http://www.w3.org/2000/svg" width="115" height="151"><g fill-rule="nonzero" fill="none"><path d="M17.53 8.376h81.686a2 2 0 0 1 2 2v131.248a2 2 0 0 1-2 2H17.529a2 2 0 0 1-2-2V10.376a2 2 0 0 1 2-2z" fill="#FFF" /><path d="M17.018 9.75c-1.816 0-3.268 1.419-3.268 3.174v127.152c0 1.755 1.452 3.174 3.268 3.174h81.964c1.816 0 3.268-1.419 3.268-3.174V12.924c0-1.755-1.452-3.174-3.268-3.174H17.018z" stroke="#000" stroke-width="1.5" /><g fill="#000"><path d="M36.853 23.896h1.522c.61.007 1.124.205 1.544.594.419.388.637.925.655 1.61a1.84 1.84 0 0 1-.761 1.463c-.486.37-1.078.561-1.776.572-1.265-.064-2.202-.318-2.811-.763-.61-.445-.913-.7-.91-.763l-1.521 1.865c.031.078.517.389 1.458.933.94.544 2.146.854 3.615.932 1.617-.063 2.864-.53 3.742-1.399.877-.869 1.321-1.759 1.332-2.67-.036-.896-.284-1.591-.746-2.085-.461-.494-.923-.837-1.384-1.03-.461-.192-.71-.285-.745-.276.029.01.233-.066.613-.226s.76-.462 1.14-.904c.38-.443.585-1.084.614-1.922-.014-1.046-.408-1.922-1.184-2.628-.775-.707-1.846-1.074-3.213-1.102-1.378.063-2.493.318-3.346.763-.853.445-1.291.7-1.317.763l1.28 1.986c-.006-.055.262-.273.804-.654.543-.382 1.402-.6 2.58-.654.905.046 1.504.293 1.796.742.292.448.426.823.402 1.123.007.293-.134.64-.423 1.039-.289.399-.768.618-1.438.657h-1.522v2.034zM50.857 16.097c-1.857.051-3.24.748-4.149 2.089-.909 1.341-1.362 3.019-1.359 5.032-.003 2.013.45 3.69 1.359 5.032.909 1.341 2.292 2.038 4.15 2.09 1.857-.052 3.24-.749 4.149-2.09.909-1.341 1.362-3.019 1.359-5.032.003-2.013-.45-3.69-1.36-5.032-.908-1.341-2.291-2.038-4.149-2.09zm0 2.204c.948.014 1.716.452 2.305 1.314.588.862.891 2.063.909 3.603-.018 1.54-.321 2.741-.91 3.603-.588.862-1.356 1.3-2.304 1.314-.947-.014-1.715-.452-2.304-1.314-.588-.862-.891-2.063-.909-3.603.018-1.54.32-2.741.91-3.603.588-.862 1.356-1.3 2.303-1.314zM59.466 30h2.367v-6.104h5.074V30h2.367V16.436h-2.367v5.425h-5.074v-5.425h-2.367zM76.529 25.253l1.691-5.765 1.691 5.765H76.53zm.338-8.817L72.47 30h2.537l.845-2.713h4.736L81.433 30h2.537l-4.397-13.564h-2.706z" /></g><path d="M57.294 44.744c-18.843 0-34.118 15.314-34.118 34.205 0 18.89 15.275 34.205 34.118 34.205 18.843 0 34.118-15.314 34.118-34.205S76.137 44.744 57.294 44.744zm0 5.783c15.657 0 28.35 12.725 28.35 28.422 0 15.697-12.693 28.422-28.35 28.422-15.657 0-28.35-12.725-28.35-28.422 0-15.697 12.693-28.422 28.35-28.422z" fill="red" /><g fill="#000"><g id="digits" fill="#000" fill-rule="nonzero"><g transform="translate(41.294812 64.541916) scale(0.098279)"><path d="M5.04502 17.229L17.045 49.2289C35.7117 36.2289 76.245 18.0289 89.045 49.2289C94.045 73.229 70.045 90.229 42.545 94.729V124.729C51.045 122.229 69.6474 119.495 78.545 124.729C87.045 129.729 93.045 130.229 99.045 147.229C100.378 155.562 98.745 174.229 81.545 182.229C64.345 190.229 44.7117 189.229 37.045 187.729C25.7117 185.396 2.54502 179.629 0.545017 175.229C0.184753 174.436 2.04502 198.396 4.04502 212.729C16.8784 218.896 54.939 230.526 99.045 212.729C156.045 189.729 144.045 107.729 91.545 99.729C105.045 91.7289 129.38 70.6943 126.545 49.2289C123.045 22.729 118.045 14.729 91.545 3.72896C74.2117 -0.604352 32.645 -3.97097 5.04502 17.229Z" />
</g><g transform="translate(59.070659 64.541916) scale(0.098721)"><path fill-rule="evenodd" clip-rule="evenodd" d="M74 221.159C98.6667 222.492 147.9 201.459 147.5 106.659C147.1 11.8591 90.6667 -3.17424 62.5 1.15909C41.8333 5.32576 0.5 32.2591 0.5 106.659C0.5 199.659 41.5 221.159 74 221.159ZM109.5 106.659C111.5 172.259 86.6667 188.659 74 188.659C59 190.159 37.9 171.059 37.5 106.659C37.1 42.2591 61.6667 31.4924 74 34.1591C85 30.9924 107.5 41.0591 109.5 106.659Z" />
</g></g></g></g></svg>