<svg xmlns="http://www.w3.org/2000/svg" width="108" height="151"><g transform="translate(9 7)" fill-rule="nonzero" fill="none"><rect fill="#FFF" x="1.373" y="1.373" width="87.843" height="134.902" rx="2" /><g fill="#000"><path d="M24.853 16.853h1.522c.61.007 1.124.204 1.544.592.419.387.637.923.655 1.606-.021.603-.275 1.09-.761 1.46-.486.369-1.078.56-1.776.57-1.265-.064-2.202-.317-2.811-.761-.61-.444-.913-.698-.91-.761l-1.521 1.86c.031.078.517.388 1.458.93.94.543 2.146.853 3.615.93 1.617-.063 2.864-.528 3.742-1.395.877-.867 1.321-1.754 1.332-2.663-.036-.894-.284-1.587-.746-2.08-.461-.493-.923-.835-1.384-1.027-.461-.192-.71-.284-.745-.276.029.01.233-.066.613-.225.38-.16.76-.46 1.14-.902.38-.442.585-1.08.614-1.917-.014-1.043-.408-1.917-1.184-2.621-.775-.705-1.846-1.071-3.213-1.1-1.378.064-2.493.318-3.346.762-.853.444-1.291.697-1.317.76l1.28 1.982c-.006-.055.262-.272.804-.653.543-.38 1.402-.598 2.58-.652.905.046 1.504.293 1.796.74.292.447.426.82.402 1.12.007.293-.134.638-.423 1.036s-.768.617-1.438.656h-1.522v2.029zM38.857 9.074c-1.857.05-3.24.745-4.149 2.083-.909 1.338-1.362 3.011-1.359 5.02-.003 2.008.45 3.68 1.359 5.019.909 1.337 2.292 2.032 4.15 2.083 1.857-.05 3.24-.746 4.149-2.083.909-1.338 1.362-3.011 1.359-5.02.003-2.008-.45-3.68-1.36-5.019-.908-1.338-2.291-2.032-4.149-2.083zm0 2.198c.948.014 1.716.451 2.305 1.31.588.86.891 2.058.909 3.594-.018 1.537-.321 2.735-.91 3.594-.588.86-1.356 1.297-2.304 1.31-.947-.013-1.715-.45-2.304-1.31-.588-.86-.891-2.057-.909-3.594.018-1.536.32-2.734.91-3.593.588-.86 1.356-1.297 2.303-1.31zM47.466 22.941h2.367v-6.088h5.074v6.088h2.367V9.412h-2.367v5.412h-5.074V9.412h-2.367zM64.529 18.206l1.691-5.75 1.691 5.75H64.53zm.338-8.794l-4.397 13.53h2.537l.845-2.707h4.736l.845 2.706h2.537l-4.397-13.53h-2.706z" /></g><path d="M45.294 37.647c-18.843 0-34.118 15.275-34.118 34.118 0 18.842 15.275 34.117 34.118 34.117 18.843 0 34.118-15.275 34.118-34.117 0-18.843-15.275-34.118-34.118-34.118zm0 5.768c15.657 0 28.35 12.693 28.35 28.35 0 15.657-12.693 28.349-28.35 28.349-15.657 0-28.35-12.692-28.35-28.35 0-15.656 12.693-28.349 28.35-28.349z" fill="#7F7F7F" /><g fill="#7F7F7F"><g id="digits" fill="#7F7F7F" fill-rule="nonzero"><g transform="translate(28.019135 57.307339) scale(0.106597)"><path d="M99.6603 36H0.660309L10.6603 0.5H137.16V31.5C100.16 86 84.6603 149.5 69.1603 209.5H27.1603C39.1603 157.5 82.1603 64.5 99.6603 36Z" />
</g><g transform="translate(46.212538 57.307339) scale(0.100835)"><path fill-rule="evenodd" clip-rule="evenodd" d="M74 221.159C98.6667 222.492 147.9 201.459 147.5 106.659C147.1 11.8591 90.6667 -3.17424 62.5 1.15909C41.8333 5.32576 0.5 32.2591 0.5 106.659C0.5 199.659 41.5 221.159 74 221.159ZM109.5 106.659C111.5 172.259 86.6667 188.659 74 188.659C59 190.159 37.9 171.059 37.5 106.659C37.1 42.2591 61.6667 31.4924 74 34.1591C85 30.9924 107.5 41.0591 109.5 106.659Z" />
</g></g></g><path d="M5.294 1.373a3.913 3.913 0 0 0-3.921 3.921v127.059a3.913 3.913 0 0 0 3.921 3.922h80a3.913 3.913 0 0 0 3.922-3.922V5.294a3.913 3.913 0 0 0-3.922-3.921h-80zm0 1.568h80c1.22 0 2.221.921 2.343 2.108L2.941 99.819V5.294a2.348 2.348 0 0 1 2.353-2.353zm82.353 5.476v3.97L2.941 107.172V103.2L87.647 8.417zm0 7.353v3.97L2.941 114.525v-3.971L87.647 15.77zm0 7.353v3.97L2.941 121.877v-3.97l84.706-94.784zm0 7.352v3.971L2.941 129.23v-3.97l84.706-94.785zm0 7.353v94.525a2.348 2.348 0 0 1-2.353 2.353h-80a2.35 2.35 0 0 1-2.343-2.108l84.696-94.77z" fill="#000" /></g></svg>