<svg width="138" height="47" viewBox="0 0 138 47" fill="none" xmlns="http://www.w3.org/2000/svg">
<path d="M4.942 0.666016H133.058C135.235 0.666016 137 2.45602 137 4.66602V41.133C137 43.343 135.235 45.133 133.058 45.133H4.942C2.765 45.133 1 43.343 1 41.133V4.66602C1 2.45602 2.765 0.666016 4.942 0.666016Z" fill="white"/>
<path fill-rule="evenodd" clip-rule="evenodd" d="M6 0.5C4.54131 0.5 3.14236 1.07946 2.11091 2.11091C1.07946 3.14236 0.5 4.54131 0.5 6V40.133C0.5 41.5917 1.07946 42.9906 2.11091 44.0221C3.14236 45.0535 4.54131 45.633 6 45.633H132C133.459 45.633 134.858 45.0535 135.889 44.0221C136.921 42.9906 137.5 41.5917 137.5 40.133V6C137.5 4.54131 136.921 3.14236 135.889 2.11091C134.858 1.07946 133.459 0.5 132 0.5H6Z" stroke="black"/>
<path d="M6.267 3.13306C4.457 3.13306 3 4.57206 3 6.35906V18.7491L107.881 18.6171V11.8431L127.321 23.1331L107.881 34.4231V27.6491L3 27.7831V39.9081C3 41.6941 4.457 43.1331 6.267 43.1331H131.733C133.543 43.1331 135 41.6941 135 39.9071V6.35906C135 4.57206 133.543 3.13306 131.733 3.13306H6.267Z" fill="#0D69E1"/>
</svg>
