<svg width="138" height="47" viewBox="0 0 138 47" fill="none" xmlns="http://www.w3.org/2000/svg">
<path d="M133.058 1.13306H4.94201C4.42329 1.13411 3.90986 1.23732 3.43102 1.43679C2.95219 1.63627 2.51733 1.9281 2.15128 2.29564C1.78523 2.66317 1.49515 3.09921 1.29762 3.57885C1.10008 4.05849 0.998956 4.57234 1.00001 5.09106V41.1751C0.998956 41.6938 1.10008 42.2076 1.29762 42.6873C1.49515 43.1669 1.78523 43.6029 2.15128 43.9705C2.51733 44.338 2.95219 44.6298 3.43102 44.8293C3.90986 45.0288 4.42329 45.132 4.94201 45.1331H133.058C133.577 45.132 134.09 45.0288 134.569 44.8293C135.048 44.6298 135.483 44.338 135.849 43.9705C136.215 43.6029 136.505 43.1669 136.702 42.6873C136.9 42.2076 137.001 41.6938 137 41.1751V5.09106C137.001 4.57234 136.9 4.05849 136.702 3.57885C136.505 3.09921 136.215 2.66317 135.849 2.29564C135.483 1.9281 135.048 1.63627 134.569 1.43679C134.09 1.23732 133.577 1.13411 133.058 1.13306Z" fill="white"/>
<path fill-rule="evenodd" clip-rule="evenodd" d="M132 0.5C133.459 0.5 134.858 1.07946 135.889 2.11091C136.921 3.14236 137.5 4.54131 137.5 6V40.133C137.5 41.5917 136.921 42.9906 135.889 44.0221C134.858 45.0535 133.459 45.633 132 45.633H6C4.54131 45.633 3.14237 45.0535 2.11092 44.0221C1.07947 42.9906 0.5 41.5917 0.5 40.133V6C0.5 4.54131 1.07947 3.14236 2.11092 2.11091C3.14237 1.07946 4.54131 0.5 6 0.5H132Z" stroke="black"/>
<path d="M131.733 3.13306C133.543 3.13306 135 4.57206 135 6.35906V18.7491L30.119 18.6171V11.8431L10.679 23.1331L30.119 34.4231V27.6491L135 27.7831V39.9081C135 41.6951 133.543 43.1341 131.733 43.1341H6.267C4.457 43.1341 3 41.6951 3 39.9081V6.35906C3 4.57206 4.457 3.13306 6.267 3.13306H131.733Z" fill="#0D69E1"/>
</svg>
