<svg xmlns="http://www.w3.org/2000/svg" width="90" height="124" viewBox="0 0 90 124" fill="none">
<path d="M79 2H11C7.68629 2 5 4.68629 5 8V116C5 119.314 7.68629 122 11 122H79C82.3137 122 85 119.314 85 116V8C85 4.68629 82.3137 2 79 2Z" fill="white" />
<path d="M73.4154 19.3459H15.5846C14.1572 19.3459 13 20.5031 13 21.9305V79.7613C13 81.1887 14.1572 82.3459 15.5846 82.3459H73.4154C74.8428 82.3459 76 81.1887 76 79.7613V21.9305C76 20.5031 74.8428 19.3459 73.4154 19.3459Z" fill="#0D69E1" />
<g id="digits" fill="white" fill-rule="evenodd"><g transform="translate(25.118183 48.555749) scale(0.120576)"><path d="M5.04502 17.229L17.045 49.2289C35.7117 36.2289 76.245 18.0289 89.045 49.2289C94.045 73.229 70.045 90.229 42.545 94.729V124.729C51.045 122.229 69.6474 119.495 78.545 124.729C87.045 129.729 93.045 130.229 99.045 147.229C100.378 155.562 98.745 174.229 81.545 182.229C64.345 190.229 44.7117 189.229 37.045 187.729C25.7117 185.396 2.54502 179.629 0.545017 175.229C0.184753 174.436 2.04502 198.396 4.04502 212.729C16.8784 218.896 54.939 230.526 99.045 212.729C156.045 189.729 144.045 107.729 91.545 99.729C105.045 91.7289 129.38 70.6943 126.545 49.2289C123.045 22.729 118.045 14.729 91.545 3.72896C74.2117 -0.604352 32.645 -3.97097 5.04502 17.229Z" />
</g><g transform="translate(46.927009 48.555749) scale(0.121119)"><path fill-rule="evenodd" clip-rule="evenodd" d="M74 221.159C98.6667 222.492 147.9 201.459 147.5 106.659C147.1 11.8591 90.6667 -3.17424 62.5 1.15909C41.8333 5.32576 0.5 32.2591 0.5 106.659C0.5 199.659 41.5 221.159 74 221.159ZM109.5 106.659C111.5 172.259 86.6667 188.659 74 188.659C59 190.159 37.9 171.059 37.5 106.659C37.1 42.2591 61.6667 31.4924 74 34.1591C85 30.9924 107.5 41.0591 109.5 106.659Z" />
</g></g><path fill-rule="evenodd" clip-rule="evenodd" d="M73.5782 101.369V104.137H15.4218V101.369H23.478C28.7649 100.109 30.5276 92.5564 44.6267 92.5564C58.2204 92.5564 60.4871 100.361 65.522 101.369H73.5782Z" fill="black" />
<path d="M79 2.13333H11C7.75993 2.13333 5.13333 4.75993 5.13333 8V116C5.13333 119.24 7.75993 121.867 11 121.867H79C82.2401 121.867 84.8667 119.24 84.8667 116V8C84.8667 4.75993 82.2401 2.13333 79 2.13333Z" stroke="black" stroke-width="0.266667" stroke-miterlimit="10" />
<path fill-rule="evenodd" clip-rule="evenodd" d="M7.66666 7.99999C7.66666 6.15892 9.15892 4.66666 11 4.66666H79C80.8409 4.66666 82.3333 6.15892 82.3333 7.99999V116C82.3333 117.841 80.8409 119.333 79 119.333H11C9.15892 119.333 7.66666 117.841 7.66666 116V7.99999ZM8.99999 7.99999C8.99999 6.89532 9.89532 5.99999 11 5.99999H79C80.1045 5.99999 81 6.89532 81 7.99999V116C81 117.105 80.1045 118 79 118H11C9.89532 118 8.99999 117.105 8.99999 116V7.99999Z" fill="black" />
</svg>