<svg xmlns="http://www.w3.org/2000/svg" width="100" height="86"><g fill="none" fill-rule="evenodd"><path d="M89.734 43A39.867 39.867 0 1 1 10 43a39.867 39.867 0 1 1 79.734 0z" fill="#FFF" fill-rule="nonzero" /><path d="M90.5 43c0 22.368-18.132 40.5-40.5 40.5S9.5 65.368 9.5 43 27.632 2.5 50 2.5 90.5 20.632 90.5 43z" stroke="#000" /><path d="M50 5C29.013 5 12 22.013 12 43s17.013 38 38 38 38-17.013 38-38S70.987 5 50 5zm0 7c17.12 0 31 13.88 31 31 0 17.12-13.88 31-31 31-17.12 0-31-13.88-31-31 0-17.12 13.88-31 31-31z" fill="red" fill-rule="nonzero" /><g fill="#000" fill-rule="nonzero"><g id="digits" fill="#000" fill-rule="nonzero"><g transform="translate(31.926224 30.861471) scale(0.109851)"><path fill-rule="evenodd" clip-rule="evenodd" d="M129.718 43.0917L123.218 8.09167C109.385 2.59167 75.3179 -5.30833 49.7179 7.09167C24.1179 19.4917 12.7179 47.5917 10.2179 60.0917C2.88458 77.2583 -7.38208 124.092 10.2179 174.092C32.2179 236.592 93.7179 220.092 101.718 213.092C112.885 204.592 135.718 181.092 137.718 155.092C140.218 122.592 129.718 98.5917 115.718 92.0917C101.718 85.5917 80.7179 67.5917 37.2179 102.092C37.8846 67.7583 57.3179 7.89167 129.718 43.0917ZM37.2179 136.092C32.7179 197.592 110.718 214.592 105.718 136.092C102.718 116.092 74.8179 92.4917 37.2179 136.092Z" />
</g><g transform="translate(52.104012 30.861471) scale(0.109356)"><path fill-rule="evenodd" clip-rule="evenodd" d="M74 221.159C98.6667 222.492 147.9 201.459 147.5 106.659C147.1 11.8591 90.6667 -3.17424 62.5 1.15909C41.8333 5.32576 0.5 32.2591 0.5 106.659C0.5 199.659 41.5 221.159 74 221.159ZM109.5 106.659C111.5 172.259 86.6667 188.659 74 188.659C59 190.159 37.9 171.059 37.5 106.659C37.1 42.2591 61.6667 31.4924 74 34.1591C85 30.9924 107.5 41.0591 109.5 106.659Z" />
</g></g></g></g></svg>