<svg width="92" height="82" viewBox="0 0 92 82" fill="none" xmlns="http://www.w3.org/2000/svg">
<path fill-rule="evenodd" clip-rule="evenodd" d="M51.3411 4.20725C54.6081 9.87025 57.8071 15.4933 62.5581 23.8993L67.3181 32.3243C77.5301 50.3923 83.6481 60.9882 90.3881 72.0902C92.6161 75.7582 89.4641 81.0863 85.2131 81.0863H6.41113C2.16013 81.0863 -0.991868 75.7582 1.23513 72.0902C7.97313 60.9912 14.0751 50.4202 24.3031 32.3272L28.9351 24.1272C33.7631 15.5872 36.9831 9.92725 40.2831 4.20725C43.1351 -0.73575 48.4901 -0.73575 51.3411 4.20725Z" stroke="#0C0E0F"/>
<path d="M7.48681 71.0572L7.48381 71.0632L6.92781 72.0302L6.91181 72.0582C6.42381 72.9212 5.92381 73.7772 5.41181 74.6262C5.19181 74.9882 5.91181 76.2002 6.41181 76.2002H85.2118C85.7118 76.2002 86.4318 74.9882 86.2118 74.6252C85.7758 73.9072 85.4398 73.3302 84.7098 72.0552L84.6898 72.0192C84.4238 71.5562 84.2938 71.3292 84.1358 71.0572L47.1088 6.64821C46.1908 5.05721 45.4338 5.05722 44.5178 6.64522L7.48781 71.0572H7.48681Z" fill="white" stroke="#FF0000" stroke-width="6"/>
<path d="M40.0181 70.6092H50.0041V51.8852L60.1491 41.7402L58.2101 38.3832L50.0041 46.5892V28.1682H40.0181V70.6092Z" fill="black"/>
</svg>
