<svg width="92" height="82" viewBox="0 0 92 82" fill="none" xmlns="http://www.w3.org/2000/svg">
<path fill-rule="evenodd" clip-rule="evenodd" d="M51.3411 4.20725C54.6081 9.87025 57.8071 15.4933 62.5581 23.8993L67.3181 32.3243C77.5301 50.3923 83.6481 60.9882 90.3881 72.0902C92.6161 75.7582 89.4641 81.0863 85.2131 81.0863H6.41113C2.16013 81.0863 -0.991867 75.7582 1.23513 72.0902C7.97313 60.9912 14.0751 50.4202 24.3031 32.3272L28.9351 24.1272C33.7631 15.5872 36.9831 9.92725 40.2831 4.20725C43.1351 -0.73575 48.4901 -0.73575 51.3411 4.20725Z" stroke="#0C0E0F"/>
<path d="M7.48729 71.0572L7.48429 71.0632L6.92829 72.0302L6.91229 72.0582C6.42429 72.9212 5.92429 73.7772 5.41229 74.6262C5.19229 74.9882 5.91229 76.2002 6.41229 76.2002H85.2123C85.7123 76.2002 86.4323 74.9882 86.2123 74.6252C85.7763 73.9072 85.4403 73.3302 84.7103 72.0552L84.6903 72.0192C84.4243 71.5562 84.2943 71.3292 84.1363 71.0572L47.1093 6.64821C46.1913 5.05721 45.4343 5.05722 44.5183 6.64522L7.48729 71.0572Z" fill="white" stroke="#FF0000" stroke-width="6"/>
<path d="M52.736 70.6092H42.75V51.8852L32.605 41.7402L34.544 38.3832L42.75 46.5892V28.1682H52.736V70.6092Z" fill="black"/>
</svg>
