<svg width="82" height="82" viewBox="0 0 82 82" fill="none" xmlns="http://www.w3.org/2000/svg">
<path d="M76 0H6C2.68629 0 0 2.68629 0 6V76C0 79.3137 2.68629 82 6 82H76C79.3137 82 82 79.3137 82 76V6C82 2.68629 79.3137 0 76 0Z" fill="white"/>
<path d="M74.5 1.5H7.5C4.18629 1.5 1.5 4.18629 1.5 7.5V74.5C1.5 77.8137 4.18629 80.5 7.5 80.5H74.5C77.8137 80.5 80.5 77.8137 80.5 74.5V7.5C80.5 4.18629 77.8137 1.5 74.5 1.5Z" stroke="black"/>
<path d="M6.80301 4.00001C6.43469 3.99922 6.06984 4.07118 5.72941 4.21176C5.38898 4.35235 5.07966 4.55878 4.81922 4.81922C4.55878 5.07966 4.35235 5.38898 4.21176 5.72941C4.07118 6.06984 3.99922 6.43469 4.00001 6.80301V39.693H78V32.367H60.621C60.621 30.6325 59.932 28.969 58.7055 27.7425C57.479 26.516 55.8155 25.827 54.081 25.827C52.3465 25.827 50.683 26.516 49.4565 27.7425C48.23 28.969 47.541 30.6325 47.541 32.367H46.231C45.8872 32.3675 45.5468 32.3001 45.2291 32.1687C44.9115 32.0373 44.6229 31.8444 44.38 31.6011C44.1371 31.3579 43.9447 31.069 43.8138 30.7512C43.6828 30.4333 43.616 30.0928 43.617 29.749V20.152C43.617 19.693 43.738 19.243 43.967 18.846L48.547 10.913C48.7762 10.5154 49.1062 10.1852 49.5037 9.95576C49.9011 9.7263 50.3521 9.60567 50.811 9.60601H78V6.80301C78.0008 6.43469 77.9288 6.06984 77.7883 5.72941C77.6477 5.38898 77.4412 5.07966 77.1808 4.81922C76.9204 4.55878 76.611 4.35235 76.2706 4.21176C75.9302 4.07118 75.5653 3.99922 75.197 4.00001H6.80301ZM51.024 11.439C50.589 11.469 50.198 11.712 49.98 12.09L46.96 17.325C46.8459 17.5239 46.786 17.7492 46.7862 17.9785C46.7865 18.2079 46.8469 18.4331 46.9615 18.6317C47.0761 18.8303 47.2409 18.9954 47.4392 19.1104C47.6376 19.2254 47.8627 19.2863 48.092 19.287H54.08C54.252 19.287 54.4224 19.2531 54.5813 19.1873C54.7403 19.1215 54.8847 19.025 55.0063 18.9033C55.128 18.7817 55.2245 18.6373 55.2903 18.4783C55.3561 18.3194 55.39 18.149 55.39 17.977V12.745C55.39 12.021 54.804 11.439 54.08 11.439H51.112C51.082 11.439 51.053 11.437 51.024 11.439ZM59.314 11.439C58.59 11.439 58.004 12.021 58.004 12.745V17.977C58.004 18.701 58.59 19.287 59.314 19.287H67.163C67.887 19.287 68.47 18.701 68.47 17.977V12.745C68.47 12.021 67.887 11.439 67.163 11.439H59.314ZM72.394 11.439C71.669 11.439 71.087 12.021 71.087 12.745V17.977C71.087 18.701 71.669 19.287 72.394 19.287H78V11.439H72.394ZM27.92 12.223V18.761H41V26.61H27.92V33.152L9.60601 22.686L27.92 12.223ZM54.08 27.136C56.97 27.136 59.312 29.476 59.314 32.366C59.3143 33.2267 59.1022 34.0741 58.6967 34.8332C58.2912 35.5924 57.7047 36.2398 56.9892 36.7181C56.2737 37.1964 55.4513 37.4908 54.5948 37.5753C53.7383 37.6598 52.8741 37.5317 52.079 37.2025C51.2838 36.8732 50.5821 36.3529 50.0361 35.6876C49.49 35.0224 49.1165 34.2327 48.9486 33.3886C48.7807 32.5445 48.8235 31.672 49.0734 30.8484C49.3232 30.0248 49.7724 29.2755 50.381 28.667C50.8668 28.1814 51.4435 27.7963 52.0782 27.5336C52.7129 27.2709 53.3931 27.1358 54.08 27.136ZM54.08 29.749C53.7364 29.7491 53.3962 29.817 53.0789 29.9486C52.7616 30.0803 52.4733 30.2732 52.2305 30.5163C51.9877 30.7595 51.7953 31.0481 51.6641 31.3656C51.5329 31.6831 51.4656 32.0234 51.466 32.367C51.4664 32.8844 51.6202 33.3901 51.908 33.82C52.1958 34.25 52.6046 34.585 53.0828 34.7826C53.5609 34.9803 54.0869 35.0317 54.5943 34.9303C55.1017 34.829 55.5676 34.5795 55.9332 34.2134C56.2988 33.8472 56.5476 33.3809 56.6481 32.8734C56.7487 32.3659 56.6965 31.8399 56.4981 31.3621C56.2997 30.8842 55.9641 30.4759 55.5337 30.1888C55.1033 29.9016 54.5974 29.7486 54.08 29.749ZM4.00001 42.307V56.697H54.08V50.155L72.394 60.621L54.08 71.087V64.545H4.00001V75.197C3.99922 75.5653 4.07118 75.9302 4.21176 76.2706C4.35235 76.611 4.55878 76.9204 4.81922 77.1808C5.07966 77.4412 5.38898 77.6477 5.72941 77.7883C6.06984 77.9288 6.43469 78.0008 6.80301 78H75.197C75.5653 78.0008 75.9302 77.9288 76.2706 77.7883C76.611 77.6477 76.9204 77.4412 77.1808 77.1808C77.4412 76.9204 77.6477 76.611 77.7883 76.2706C77.9288 75.9302 78.0008 75.5653 78 75.197V42.307H4.00001Z" fill="#0D69E1"/>
</svg>
