<svg width="56" height="82" viewBox="0 0 56 82" fill="none" xmlns="http://www.w3.org/2000/svg">
<path d="M5 0H51C51.6566 0 52.3068 0.129329 52.9134 0.380602C53.52 0.631876 54.0712 1.00017 54.5355 1.46447C54.9998 1.92876 55.3681 2.47995 55.6194 3.08658C55.8707 3.69321 56 4.34339 56 5V77C56 78.3261 55.4732 79.5979 54.5355 80.5355C53.5979 81.4732 52.3261 82 51 82H5C3.67392 82 2.40214 81.4732 1.46446 80.5355C0.52678 79.5979 0 78.3261 0 77V5C0 3.67392 0.52678 2.40215 1.46446 1.46447C2.40214 0.526784 3.67392 0 5 0Z" fill="white"/>
<path fill-rule="evenodd" clip-rule="evenodd" d="M5.5 1.5H50.5C51.5609 1.5 52.5783 1.92143 53.3284 2.67157C54.0786 3.42172 54.5 4.43913 54.5 5.5V76.5C54.5 77.5609 54.0786 78.5783 53.3284 79.3284C52.5783 80.0786 51.5609 80.5 50.5 80.5H5.5C4.43913 80.5 3.42172 80.0786 2.67157 79.3284C1.92142 78.5783 1.5 77.5609 1.5 76.5V5.5C1.5 4.43913 1.92142 3.42172 2.67157 2.67157C3.42172 1.92143 4.43913 1.5 5.5 1.5Z" stroke="black"/>
<path d="M17.667 35.147H37.667V36.069H17.667V35.147ZM17.667 36.861V42.667H20.174V40.193H26.007C26.1028 40.5602 26.3176 40.8853 26.6179 41.1173C26.9182 41.3493 27.287 41.4752 27.6665 41.4752C28.046 41.4752 28.4148 41.3493 28.7151 41.1173C29.0154 40.8853 29.2302 40.5602 29.326 40.193H35.16V42.667H37.667V36.86H35.16V39.334H29.326C29.2302 38.9668 29.0154 38.6417 28.7151 38.4096C28.4148 38.1776 28.046 38.0517 27.6665 38.0517C27.287 38.0517 26.9182 38.1776 26.6179 38.4096C26.3176 38.6417 26.1028 38.9668 26.007 39.334H20.174V36.86L17.667 36.861Z" fill="black"/>
<path d="M19.646 11C18.549 11 17.666 11.883 17.666 12.98V34.354H37.666V12.98C37.6667 12.7199 37.6159 12.4623 37.5167 12.2219C37.4175 11.9815 37.2718 11.7631 37.0879 11.5792C36.904 11.3953 36.6855 11.2495 36.4451 11.1503C36.2047 11.0511 35.9471 11.0003 35.687 11.001H19.646V11Z" fill="#FF8000"/>
<path d="M27.667 49C34.57 49 40.167 54.596 40.167 61.5C40.167 68.404 34.57 74 27.667 74C26.309 74 25.002 73.782 23.779 73.382V62.796C23.779 61.842 24.553 61.068 25.507 61.068H31.555V63.264L37.604 59.771L31.554 56.279V58.475H25.507C24.9396 58.475 24.3778 58.5868 23.8536 58.8039C23.3294 59.0211 22.8531 59.3394 22.4519 59.7407C22.0508 60.1419 21.7326 60.6183 21.5156 61.1425C21.2985 61.6667 21.1869 62.2286 21.187 62.796V72.192C19.3486 71.0782 17.8286 69.5089 16.774 67.6359C15.7195 65.7629 15.1659 63.6495 15.167 61.5C15.167 54.596 20.763 49 27.667 49Z" fill="#0D69E1"/>
</svg>
