<svg xmlns="http://www.w3.org/2000/svg" width="100" height="86">
  <g fill="none" fill-rule="evenodd">
    <path d="M90 43c0 22.091-17.909 40-40 40S10 65.091 10 43 27.909 3 50 3s40 17.909 40 40z" fill="#FFF" fill-rule="nonzero" />
    <path d="M90.386 43c0 22.304-18.082 40.386-40.386 40.386C27.696 83.386 9.614 65.304 9.614 43 9.614 20.696 27.696 2.614 50 2.614c22.304 0 40.386 18.082 40.386 40.386z" stroke="#000" />
    <path id="disc" d="M50 5.286C29.171 5.286 12.286 22.17 12.286 43c0 20.829 16.885 37.714 37.714 37.714 20.829 0 37.714-16.885 37.714-37.714C87.714 22.171 70.83 5.286 50 5.286z" fill="#0D69E1" fill-rule="nonzero" />
    <g id="digits" fill="#FFF" fill-rule="evenodd"><g transform="translate(31.702826 30.716964) scale(0.113732)"><path d="M8.68118 0.5H125.181L113.181 37H40.1812V80.5C55.3478 74.3333 73.1812 60.5 107.181 80.5C128.681 99 130.181 108 133.681 121C136.481 131.4 133.515 149 131.681 156.5C128.515 174.667 109.881 211.9 60.6812 215.5C44.6812 215.5 13.6812 206.5 6.68118 200L0.681183 163.5C17.5145 174.833 58.3812 190.7 87.1812 163.5C95.1812 156 106.381 135.2 87.1812 112C67.9812 88.8 41.1812 100.667 30.1812 109.5H26.1812L8.68118 100V0.5Z" />
</g><g transform="translate(51.883399 30.716964) scale(0.110658)"><path fill-rule="evenodd" clip-rule="evenodd" d="M74 221.159C98.6667 222.492 147.9 201.459 147.5 106.659C147.1 11.8591 90.6667 -3.17424 62.5 1.15909C41.8333 5.32576 0.5 32.2591 0.5 106.659C0.5 199.659 41.5 221.159 74 221.159ZM109.5 106.659C111.5 172.259 86.6667 188.659 74 188.659C59 190.159 37.9 171.059 37.5 106.659C37.1 42.2591 61.6667 31.4924 74 34.1591C85 30.9924 107.5 41.0591 109.5 106.659Z" />
</g></g></g>
</svg>