<svg width="138" height="44" viewBox="0 0 138 44" fill="none" xmlns="http://www.w3.org/2000/svg">
<path d="M6 0H131.334C132.925 0 134.451 0.632141 135.577 1.75736C136.702 2.88258 137.334 4.4087 137.334 6V38C137.334 39.5913 136.702 41.1174 135.577 42.2426C134.451 43.3679 132.925 44 131.334 44H6C4.4087 44 2.88259 43.3679 1.75737 42.2426C0.632152 41.1174 0 39.5913 0 38V6C0 4.4087 0.632152 2.88258 1.75737 1.75736C2.88259 0.632141 4.4087 0 6 0Z" fill="white"/>
<path d="M4.69 5.66798e-05C4.07523 -0.00284076 3.46593 0.115729 2.89711 0.348958C2.32829 0.582187 1.81113 0.92548 1.37535 1.35913C0.939567 1.79277 0.593734 2.30823 0.357712 2.8759C0.121689 3.44357 0.000124874 4.05227 4.08278e-10 4.66706V39.3341C-8.13202e-06 39.9488 0.12148 40.5575 0.357468 41.1252C0.593455 41.6929 0.939299 42.2083 1.37512 42.6419C1.81095 43.0755 2.32816 43.4187 2.89703 43.6518C3.46591 43.8849 4.07524 44.0032 4.69 44.0001H133.311C133.926 44.003 134.535 43.8844 135.104 43.6512C135.672 43.4181 136.19 43.0749 136.625 42.6413C137.061 42.2078 137.407 41.6925 137.643 41.1249C137.879 40.5573 138.001 39.9488 138.001 39.3341V4.66706C138.001 4.05224 137.88 3.44348 137.644 2.87575C137.408 2.30801 137.062 1.7925 136.626 1.35883C136.19 0.925158 135.673 0.58187 135.104 0.348688C134.535 0.115506 133.926 -0.00297328 133.311 5.66798e-05H4.69ZM4.69 1.33406H133.311C133.75 1.33195 134.185 1.4166 134.592 1.58314C134.998 1.74968 135.367 1.99484 135.678 2.30454C135.99 2.61423 136.237 2.98236 136.405 3.38779C136.574 3.79322 136.661 4.22796 136.661 4.66706V39.3341C136.661 39.7732 136.574 40.208 136.406 40.6135C136.237 41.019 135.99 41.3872 135.679 41.6969C135.367 42.0066 134.998 42.2517 134.592 42.4182C134.185 42.5847 133.75 42.6693 133.311 42.6671H4.69C4.25091 42.6692 3.81574 42.5845 3.40945 42.418C3.00317 42.2514 2.6338 42.0063 2.32253 41.6966C2.01125 41.3869 1.7642 41.0188 1.5956 40.6133C1.42699 40.2079 1.34014 39.7731 1.34001 39.3341V4.66706C1.34001 4.22793 1.42678 3.79312 1.59534 3.38763C1.7639 2.98214 2.01092 2.61396 2.32222 2.30424C2.63352 1.99452 3.00296 1.74937 3.4093 1.58287C3.81564 1.41637 4.25088 1.33182 4.69 1.33406Z" fill="#1A1A1A"/>
<path d="M129.642 2.66699L2.66699 36.959V39.334C2.66699 40.442 3.55899 41.334 4.66699 41.334H7.69199L134.667 7.04199V4.66699C134.667 3.55899 133.775 2.66699 132.667 2.66699H129.642Z" fill="#FF0000"/>
<path d="M40.667 5.66699L31.334 25.5V27.852L48.877 23.116L40.667 5.66699ZM124.259 11.216L113 14.256V29H110.667V24.334L99 18.5L87.334 24.334V29H85V26.667L80.469 23.043L23.841 38.333H129.334V12.667L124.259 11.216ZM18.5 20.834L8 24.334V34.156L29 28.483V24.333L18.5 20.834Z" fill="black"/>
</svg>
