<svg xmlns="http://www.w3.org/2000/svg" width="90" height="124" viewBox="0 0 90 124" fill="none">
<path d="M79 2H11C7.68629 2 5 4.68629 5 8V116C5 119.314 7.68629 122 11 122H79C82.3137 122 85 119.314 85 116V8C85 4.68629 82.3137 2 79 2Z" fill="white" />
<path d="M73.4154 19.3459H15.5846C14.1572 19.3459 13 20.5031 13 21.9305V79.7613C13 81.1887 14.1572 82.3459 15.5846 82.3459H73.4154C74.8428 82.3459 76 81.1887 76 79.7613V21.9305C76 20.5031 74.8428 19.3459 73.4154 19.3459Z" fill="#0D69E1" />
<g id="digits" fill="white" fill-rule="evenodd"><g transform="translate(26.433140 46.842500) scale(0.143673)"><path d="M0.642227 49.9999L42.6422 0.5H75.6422V210.5H44.6422V46.4999L12.1422 65L0.642227 49.9999Z" />
</g><g transform="translate(43.004263 46.842500) scale(0.136554)"><path fill-rule="evenodd" clip-rule="evenodd" d="M74 221.159C98.6667 222.492 147.9 201.459 147.5 106.659C147.1 11.8591 90.6667 -3.17424 62.5 1.15909C41.8333 5.32576 0.5 32.2591 0.5 106.659C0.5 199.659 41.5 221.159 74 221.159ZM109.5 106.659C111.5 172.259 86.6667 188.659 74 188.659C59 190.159 37.9 171.059 37.5 106.659C37.1 42.2591 61.6667 31.4924 74 34.1591C85 30.9924 107.5 41.0591 109.5 106.659Z" />
</g></g><path fill-rule="evenodd" clip-rule="evenodd" d="M73.5782 101.369V104.137H15.4218V101.369H23.478C28.7649 100.109 30.5276 92.5564 44.6267 92.5564C58.2204 92.5564 60.4871 100.361 65.522 101.369H73.5782Z" fill="black" />
<path d="M79 2.13333H11C7.75993 2.13333 5.13333 4.75993 5.13333 8V116C5.13333 119.24 7.75993 121.867 11 121.867H79C82.2401 121.867 84.8667 119.24 84.8667 116V8C84.8667 4.75993 82.2401 2.13333 79 2.13333Z" stroke="black" stroke-width="0.266667" stroke-miterlimit="10" />
<path fill-rule="evenodd" clip-rule="evenodd" d="M7.66666 7.99999C7.66666 6.15892 9.15892 4.66666 11 4.66666H79C80.8409 4.66666 82.3333 6.15892 82.3333 7.99999V116C82.3333 117.841 80.8409 119.333 79 119.333H11C9.15892 119.333 7.66666 117.841 7.66666 116V7.99999ZM8.99999 7.99999C8.99999 6.89532 9.89532 5.99999 11 5.99999H79C80.1045 5.99999 81 6.89532 81 7.99999V116C81 117.105 80.1045 118 79 118H11C9.89532 118 8.99999 117.105 8.99999 116V7.99999Z" fill="black" />
</svg>