<svg width="80" height="80" viewBox="0 0 80 80" fill="none" xmlns="http://www.w3.org/2000/svg">
<path d="M74 0H6C2.68629 0 0 2.68629 0 6V74C0 77.3137 2.68629 80 6 80H74C77.3137 80 80 77.3137 80 74V6C80 2.68629 77.3137 0 74 0Z" fill="white"/>
<path d="M73.3848 0.614014H6.61377C3.30006 0.614014 0.61377 3.30031 0.61377 6.61401V73.385C0.61377 76.6987 3.30006 79.385 6.61377 79.385H73.3848C76.6985 79.385 79.3848 76.6987 79.3848 73.385V6.61401C79.3848 3.30031 76.6985 0.614014 73.3848 0.614014Z" stroke="black"/>
<path d="M5.80301 3.00001C5.43469 2.99922 5.06984 3.07118 4.72941 3.21176C4.38898 3.35235 4.07966 3.55878 3.81922 3.81922C3.55878 4.07966 3.35235 4.38898 3.21176 4.72941C3.07118 5.06984 2.99922 5.43469 3.00001 5.80301V74.197C2.99922 74.5653 3.07118 74.9302 3.21176 75.2706C3.35235 75.611 3.55878 75.9204 3.81922 76.1808C4.07966 76.4412 4.38898 76.6477 4.72941 76.7883C5.06984 76.9288 5.43469 77.0008 5.80301 77H21.686V53.02C17.483 51.433 14.492 47.376 14.492 42.617C14.492 37.859 17.482 33.797 21.686 32.211V26.921H15.148L25.61 8.60501L36.076 26.92H29.534V32.211C33.737 33.798 36.731 37.859 36.731 42.617C36.731 47.376 33.737 51.433 29.534 53.02V62.277L47.782 44.03C49.4997 42.3129 50.4652 39.9838 50.466 37.555V26.92H43.924L54.39 8.60601L64.852 26.92H58.314V37.554C58.314 42.064 56.524 46.39 53.335 49.579L31.833 71.075C30.361 72.5469 29.534 74.5433 29.534 76.625V77H74.197C74.5653 77.0008 74.9302 76.9288 75.2706 76.7883C75.611 76.6477 75.9204 76.4412 76.1808 76.1808C76.4412 75.9204 76.6477 75.611 76.7883 75.2706C76.9288 74.9302 77.0008 74.5653 77 74.197V5.80301C77.0008 5.43469 76.9288 5.06984 76.7883 4.72941C76.6477 4.38898 76.4412 4.07966 76.1808 3.81922C75.9204 3.55878 75.611 3.35235 75.2706 3.21176C74.9302 3.07118 74.5653 2.99922 74.197 3.00001H41.307V11.223H38.693V3.00001H5.80301ZM38.693 13.837H41.307V21.686H38.693V13.837ZM38.693 24.303H41.307V32.152H38.693V24.303ZM25.61 32.807C20.192 32.807 15.8 37.199 15.8 42.617C15.8 48.036 20.192 52.427 25.61 52.427C31.028 52.427 35.42 48.036 35.42 42.617C35.42 37.199 31.028 32.807 25.61 32.807ZM29.58 38.325C30.43 38.355 31.109 38.774 31.619 39.58C32.129 40.385 32.391 41.399 32.404 42.617C32.391 43.895 32.129 44.924 31.619 45.704C31.109 46.484 30.43 46.884 29.579 46.906C28.729 46.884 28.047 46.485 27.537 45.704C27.027 44.924 26.765 43.894 26.752 42.617C26.765 41.34 27.027 40.311 27.537 39.53C28.047 38.75 28.729 38.347 29.58 38.325ZM22.898 38.43H24.156V43.872H25.306L24.829 45.126H24.261V46.801H22.796V45.126H18.82V43.872L22.898 38.43ZM29.503 39.625C29.128 39.648 28.825 39.887 28.595 40.336C28.35 40.816 28.223 41.577 28.217 42.617C28.223 43.657 28.35 44.415 28.595 44.895C28.841 45.375 29.17 45.612 29.58 45.606C29.99 45.612 30.315 45.374 30.56 44.895C30.806 44.415 30.933 43.658 30.94 42.617C30.933 41.577 30.806 40.816 30.56 40.337C30.315 39.857 29.99 39.619 29.58 39.625H29.503ZM22.796 40.627L20.389 43.872H22.796V40.627Z" fill="#0D69E1"/>
</svg>
