<svg xmlns="http://www.w3.org/2000/svg" width="100" height="86"><g fill="none" fill-rule="evenodd"><path d="M90 43c0 22.091-17.909 40-40 40S10 65.091 10 43 27.909 3 50 3s40 17.909 40 40z" fill="#FFCB00" fill-rule="nonzero" /><path d="M89.133 43.133c0-21.539-17.46-39-39-39-21.539 0-39 17.461-39 39 0 21.54 17.461 39 39 39 21.54 0 39-17.46 39-39z" stroke="#000" stroke-width="2" /><g fill="#7F7F7F" fill-rule="nonzero"><g id="digits" fill="#7F7F7F" fill-rule="nonzero"><g transform="translate(31.613936 30.789349) scale(0.109513)"><path fill-rule="evenodd" clip-rule="evenodd" d="M6.51013 177.5L10.5101 211L27.0101 218C40.8435 220.834 71.7101 224.8 84.5101 218C100.51 209.5 127.01 201 140.51 137.5C146.51 93.5004 143.61 4.50037 70.0101 0.500366C46.5101 1.16703 -0.289874 19.0004 0.510127 85.0004C0.922248 119 51.0101 169.3 105.01 122.5C107.51 157 76.1101 217.9 6.51013 177.5ZM105.01 85.0004C101.01 5.00037 27.0101 32.5004 37.0101 85.0004C41.5101 108.625 81.4101 121.8 105.01 85.0004Z" />
</g><g transform="translate(51.994406 30.789349) scale(0.110006)"><path fill-rule="evenodd" clip-rule="evenodd" d="M74 221.159C98.6667 222.492 147.9 201.459 147.5 106.659C147.1 11.8591 90.6667 -3.17424 62.5 1.15909C41.8333 5.32576 0.5 32.2591 0.5 106.659C0.5 199.659 41.5 221.159 74 221.159ZM109.5 106.659C111.5 172.259 86.6667 188.659 74 188.659C59 190.159 37.9 171.059 37.5 106.659C37.1 42.2591 61.6667 31.4924 74 34.1591C85 30.9924 107.5 41.0591 109.5 106.659Z" />
</g></g></g><path d="M50 4.333C28.645 4.333 11.333 21.645 11.333 43S28.645 81.667 50 81.667 88.667 64.355 88.667 43 71.355 4.333 50 4.333zm0 1.334c8.05 0 15.507 2.546 21.604 6.879L19.546 64.604A37.167 37.167 0 0 1 12.666 43C12.667 22.381 29.382 5.667 50 5.667zm22.546 7.579c.448.34.888.69 1.32 1.05l-52.57 52.57c-.36-.432-.71-.872-1.05-1.32l52.3-52.3zm2.208 1.808c.42.372.827.752 1.23 1.142L23.195 68.983c-.39-.402-.77-.81-1.142-1.229l52.7-52.7zm2.05 1.963c.39.402.77.81 1.142 1.229l-52.7 52.7c-.42-.372-.827-.752-1.23-1.142l52.788-52.787zm1.9 2.116c.36.433.71.873 1.05 1.321l-52.3 52.3c-.448-.34-.888-.69-1.32-1.05l52.57-52.57zm1.75 2.263A37.167 37.167 0 0 1 87.334 43c0 20.619-16.715 37.333-37.334 37.333a37.167 37.167 0 0 1-21.604-6.879l52.058-52.058z" fill="#000" fill-rule="nonzero" /></g></svg>