<svg xmlns="http://www.w3.org/2000/svg" width="100" height="86"><g fill="none" fill-rule="evenodd"><path d="M90 43c0 22.091-17.909 40-40 40S10 65.091 10 43 27.909 3 50 3s40 17.909 40 40z" fill="#FFF" fill-rule="nonzero" /><path id="disc" d="M49.999 5.284c-20.827 0-37.713 16.887-37.713 37.717 0 20.827 16.886 37.713 37.713 37.713 20.83 0 37.717-16.886 37.717-37.713 0-20.83-16.887-37.717-37.717-37.717z" fill="#0D69E1" fill-rule="nonzero" /><g id="digits" fill="#FFF" fill-rule="evenodd"><g transform="translate(30.127623 30.862353) scale(0.115049)"><path fill-rule="evenodd" clip-rule="evenodd" d="M0.5 168.5V137L100.5 0.5H136.5V137H163L153 168.5H136.5V210.5H100.5V168.5H0.5ZM99.5 54.5L37.5 137H99.5V54.5Z" />
</g><g transform="translate(52.103859 30.862353) scale(0.109348)"><path fill-rule="evenodd" clip-rule="evenodd" d="M74 221.159C98.6667 222.492 147.9 201.459 147.5 106.659C147.1 11.8591 90.6667 -3.17424 62.5 1.15909C41.8333 5.32576 0.5 32.2591 0.5 106.659C0.5 199.659 41.5 221.159 74 221.159ZM109.5 106.659C111.5 172.259 86.6667 188.659 74 188.659C59 190.159 37.9 171.059 37.5 106.659C37.1 42.2591 61.6667 31.4924 74 34.1591C85 30.9924 107.5 41.0591 109.5 106.659Z" />
</g></g><path d="M90.386 43c0 22.304-18.082 40.386-40.386 40.386C27.696 83.386 9.614 65.304 9.614 43 9.614 20.696 27.696 2.614 50 2.614c22.304 0 40.386 18.082 40.386 40.386z" stroke="#000" /><path d="M73.993 13.9L20.9 66.993a37.97 37.97 0 0 0 5.107 5.107L79.1 19.007a37.97 37.97 0 0 0-5.107-5.107z" fill="red" fill-rule="nonzero" /></g></svg>