<svg xmlns="http://www.w3.org/2000/svg" width="100" height="86"><g transform="translate(10 3)" fill="none" fill-rule="evenodd"><rect fill="#FFF" fill-rule="nonzero" width="80" height="80" rx="6" /><rect stroke="#000" x=".5" y=".5" width="79" height="79" rx="6" /><path id="panel" d="M6.304 3A3.296 3.296 0 0 0 3 6.304v67.392A3.296 3.296 0 0 0 6.304 77h67.392A3.296 3.296 0 0 0 77 73.696V6.304A3.296 3.296 0 0 0 73.696 3H6.304z" fill="#0D69E1" fill-rule="nonzero" /><g id="digits" fill="#FFF" fill-rule="evenodd"><g transform="translate(20.452824 26.782036) scale(0.118547)"><path d="M5.04502 17.229L17.045 49.2289C35.7117 36.2289 76.245 18.0289 89.045 49.2289C94.045 73.229 70.045 90.229 42.545 94.729V124.729C51.045 122.229 69.6474 119.495 78.545 124.729C87.045 129.729 93.045 130.229 99.045 147.229C100.378 155.562 98.745 174.229 81.545 182.229C64.345 190.229 44.7117 189.229 37.045 187.729C25.7117 185.396 2.54502 179.629 0.545017 175.229C0.184753 174.436 2.04502 198.396 4.04502 212.729C16.8784 218.896 54.939 230.526 99.045 212.729C156.045 189.729 144.045 107.729 91.545 99.729C105.045 91.7289 129.38 70.6943 126.545 49.2289C123.045 22.729 118.045 14.729 91.545 3.72896C74.2117 -0.604352 32.645 -3.97097 5.04502 17.229Z" />
</g><g transform="translate(41.894575 26.782036) scale(0.119081)"><path fill-rule="evenodd" clip-rule="evenodd" d="M74 221.159C98.6667 222.492 147.9 201.459 147.5 106.659C147.1 11.8591 90.6667 -3.17424 62.5 1.15909C41.8333 5.32576 0.5 32.2591 0.5 106.659C0.5 199.659 41.5 221.159 74 221.159ZM109.5 106.659C111.5 172.259 86.6667 188.659 74 188.659C59 190.159 37.9 171.059 37.5 106.659C37.1 42.2591 61.6667 31.4924 74 34.1591C85 30.9924 107.5 41.0591 109.5 106.659Z" />
</g></g></g></svg>