<svg width="84" height="84" viewBox="0 0 84 84" fill="none" xmlns="http://www.w3.org/2000/svg">
<path d="M7.3 0H76.7C78.3709 0 79.9733 0.663748 81.1548 1.84523C82.3362 3.02671 83 4.62914 83 6.3V76.7C83 78.3709 82.3362 79.9733 81.1548 81.1548C79.9733 82.3362 78.3709 83 76.7 83H7.3C5.62914 83 4.02671 82.3362 2.84523 81.1548C1.66375 79.9733 1 78.3709 1 76.7V6.3C1 4.62914 1.66375 3.02671 2.84523 1.84523C4.02671 0.663748 5.62914 0 7.3 0Z" fill="white"/>
<path d="M76.293 3C78.901 3 81 5.1 81 7.707V76.293C81 78.901 78.9 81 76.293 81H7.70701C7.08851 81.0013 6.47584 80.8805 5.90416 80.6444C5.33249 80.4083 4.81307 80.0616 4.37572 79.6243C3.93837 79.1869 3.59171 78.6675 3.35562 78.0958C3.11954 77.5242 2.99869 76.9115 3.00001 76.293V7.707C3.00001 5.099 5.10001 3 7.70701 3H76.293ZM29.393 9.22H6.69701V74.78H29.391V9.22H29.393ZM45.408 18.55C42.671 18.55 39.163 21.946 39.163 25.707C39.163 29.446 42.248 31.43 43.79 31.43C46.148 31.43 48.787 25.893 48.787 22.807C48.727 20.249 47.42 18.55 45.408 18.55ZM62.328 28.968H48.998C48.954 28.968 48.91 28.965 48.867 28.968C48.224 29.016 47.641 29.426 47.317 30.056L45.539 33.502C45.3681 33.8387 45.279 34.2109 45.279 34.5885C45.279 34.9661 45.3681 35.3383 45.539 35.675L51.531 47.304L42.479 53.154C41.879 53.542 41.509 54.264 41.509 55.041V72.259C41.509 73.859 42.668 75.159 44.097 75.159C45.527 75.159 46.682 73.859 46.682 72.259V57.129L58.045 49.787C59.593 48.787 60.12 46.574 59.226 44.841L53.654 34.041H60.668L66.488 40.563C67.436 41.623 68.975 41.623 69.922 40.563C70.869 39.502 70.869 37.778 69.922 36.717L63.475 29.497C63.3321 29.3327 63.1559 29.2006 62.9582 29.1092C62.7606 29.0179 62.5458 28.9694 62.328 28.967V28.968ZM44.32 36.583L40.81 43.395L35.364 39.873C34.204 39.123 32.718 39.566 32.048 40.865C31.378 42.165 31.778 43.825 32.939 44.576L40.891 49.72C41.664 50.22 42.651 49.923 43.097 49.056L46.934 41.651L44.32 36.583ZM74.44 50.46C73.9604 50.4489 73.4886 50.5835 73.087 50.846L62.736 57.541L59.373 51.023L54.893 53.919L60.025 63.883C60.472 64.749 61.462 65.043 62.235 64.543L75.675 55.869C76.913 55.069 77.34 53.292 76.625 51.905C76.156 50.995 75.314 50.482 74.44 50.46Z" fill="#00A500"/>
<path fill-rule="evenodd" clip-rule="evenodd" d="M6.16 0.5C4.65887 0.5 3.21923 1.09632 2.15778 2.15778C1.09632 3.21923 0.5 4.65887 0.5 6.16V77.84C0.5 79.3411 1.09632 80.7808 2.15778 81.8422C3.21923 82.9037 4.65887 83.5 6.16 83.5H77.84C79.3411 83.5 80.7808 82.9037 81.8422 81.8422C82.9037 80.7808 83.5 79.3411 83.5 77.84V6.16C83.5 4.65887 82.9037 3.21923 81.8422 2.15778C80.7808 1.09632 79.3411 0.5 77.84 0.5H6.16Z" stroke="black"/>
</svg>
