<svg width="84" height="84" viewBox="0 0 84 84" fill="none" xmlns="http://www.w3.org/2000/svg">
<path d="M76.7 0H7.3C5.62914 0 4.02671 0.663748 2.84523 1.84523C1.66375 3.02671 1 4.62914 1 6.3V76.7C1 78.3709 1.66375 79.9733 2.84523 81.1548C4.02671 82.3362 5.62914 83 7.3 83H76.7C77.5273 83 78.3465 82.837 79.1109 82.5204C79.8753 82.2038 80.5698 81.7398 81.1548 81.1548C81.7398 80.5698 82.2038 79.8753 82.5204 79.1109C82.8371 78.3466 83 77.5273 83 76.7V6.3C83 5.47267 82.8371 4.65345 82.5204 3.88909C82.2038 3.12474 81.7398 2.43024 81.1548 1.84523C80.5698 1.26022 79.8753 0.796164 79.1109 0.479559C78.3465 0.162954 77.5273 0 76.7 0Z" fill="white"/>
<path d="M7.70701 3.00001C7.08851 2.99869 6.47584 3.11954 5.90416 3.35562C5.33249 3.59171 4.81307 3.93837 4.37572 4.37572C3.93837 4.81307 3.59171 5.33249 3.35562 5.90416C3.11954 6.47584 2.99869 7.08851 3.00001 7.70701V76.293C3.00001 78.901 5.10001 81 7.70701 81H76.293C78.901 81 81 78.9 81 76.293V7.70701C81 5.09901 78.9 3.00001 76.293 3.00001H7.70701ZM54.607 9.22001H77.302V74.78H54.608V9.22001H54.607ZM38.592 18.55C41.329 18.55 44.837 21.946 44.837 25.707C44.837 29.446 41.752 31.43 40.21 31.43C37.852 31.43 35.213 25.893 35.213 22.807C35.273 20.249 36.58 18.55 38.592 18.55ZM21.672 28.968H35.002C35.046 28.968 35.09 28.965 35.133 28.968C35.776 29.016 36.359 29.426 36.683 30.056L38.461 33.502C38.6319 33.8387 38.721 34.2109 38.721 34.5885C38.721 34.9661 38.6319 35.3383 38.461 35.675L32.469 47.304L41.521 53.154C42.121 53.542 42.491 54.264 42.491 55.041V72.259C42.491 73.859 41.332 75.159 39.903 75.159C38.473 75.159 37.318 73.859 37.318 72.259V57.129L25.955 49.787C24.407 48.787 23.88 46.574 24.774 44.841L30.346 34.041H23.332L17.512 40.563C16.564 41.623 15.025 41.623 14.078 40.563C13.131 39.502 13.131 37.778 14.078 36.717L20.525 29.497C20.6678 29.3326 20.8439 29.2003 21.0417 29.109C21.2394 29.0176 21.4542 28.9692 21.672 28.967V28.968ZM39.68 36.583L43.19 43.395L48.636 39.873C49.796 39.123 51.282 39.566 51.952 40.865C52.622 42.165 52.222 43.825 51.061 44.576L43.109 49.72C42.336 50.22 41.349 49.923 40.903 49.056L37.066 41.651L39.68 36.583ZM9.56001 50.46C10.018 50.448 10.488 50.571 10.913 50.846L21.264 57.541L24.627 51.023L29.107 53.919L23.975 63.883C23.528 64.749 22.538 65.043 21.765 64.543L8.32501 55.869C7.08701 55.069 6.66001 53.292 7.37501 51.905C7.84401 50.995 8.68601 50.482 9.56001 50.46Z" fill="#00A500"/>
<path fill-rule="evenodd" clip-rule="evenodd" d="M77.84 0.5C79.3411 0.5 80.7808 1.09632 81.8422 2.15778C82.9037 3.21923 83.5 4.65887 83.5 6.16V77.84C83.5 79.3411 82.9037 80.7808 81.8422 81.8422C80.7808 82.9037 79.3411 83.5 77.84 83.5H6.16C4.65888 83.5 3.21923 82.9037 2.15778 81.8422C1.09632 80.7808 0.5 79.3411 0.5 77.84V6.16C0.5 4.65887 1.09632 3.21923 2.15778 2.15778C3.21923 1.09632 4.65888 0.5 6.16 0.5H77.84Z" stroke="black"/>
</svg>
