<svg xmlns="http://www.w3.org/2000/svg" width="100" height="86"><g fill="none" fill-rule="evenodd"><path d="M90 43c0 22.091-17.909 40-40 40S10 65.091 10 43 27.909 3 50 3s40 17.909 40 40z" fill="#FFCB00" fill-rule="nonzero" /><path d="M89.133 43.133c0-21.539-17.46-39-39-39-21.539 0-39 17.461-39 39 0 21.54 17.461 39 39 39 21.54 0 39-17.46 39-39z" stroke="#000" stroke-width="2" /><g fill="#7F7F7F" fill-rule="nonzero"><g id="digits" fill="#7F7F7F" fill-rule="nonzero"><g transform="translate(31.431445 30.861176) scale(0.109854)"><path fill-rule="evenodd" clip-rule="evenodd" d="M37.3119 104.578C6.31191 112.578 -27.0881 180.078 37.3119 214.078C52.8119 222.261 97.4119 222.878 109.812 214.078C151.312 196.578 168.812 131.078 104.812 104.578C142.312 94.0782 166.412 29.9782 104.812 5.57818C96.8119 -0.422008 53.3119 -1.922 39.8119 5.57805C7.81191 17.0779 -18.2881 72.9783 37.3119 104.578ZM73.3119 87.078C101.812 79.078 124.112 35.078 73.3119 31.078C23.8119 35.578 43.8119 81.078 73.3119 87.078ZM104.312 176.578C113.112 167.378 109.312 151.578 104.312 148.078C103.912 146.478 81.8119 125.578 73.3119 121.578C67.3119 121.578 49.8119 137.578 41.8119 145.578C33.4119 151.178 36.8119 170.745 41.8119 176.578C56.8119 194.078 93.8119 189.578 104.312 176.578Z" />
</g><g transform="translate(52.104063 30.861176) scale(0.109359)"><path fill-rule="evenodd" clip-rule="evenodd" d="M74 221.159C98.6667 222.492 147.9 201.459 147.5 106.659C147.1 11.8591 90.6667 -3.17424 62.5 1.15909C41.8333 5.32576 0.5 32.2591 0.5 106.659C0.5 199.659 41.5 221.159 74 221.159ZM109.5 106.659C111.5 172.259 86.6667 188.659 74 188.659C59 190.159 37.9 171.059 37.5 106.659C37.1 42.2591 61.6667 31.4924 74 34.1591C85 30.9924 107.5 41.0591 109.5 106.659Z" />
</g></g></g><path d="M50 4.333C28.645 4.333 11.333 21.645 11.333 43S28.645 81.667 50 81.667 88.667 64.355 88.667 43 71.355 4.333 50 4.333zm0 1.334c8.05 0 15.507 2.546 21.604 6.879L19.546 64.604A37.167 37.167 0 0 1 12.666 43C12.667 22.381 29.382 5.667 50 5.667zm22.546 7.579c.448.34.888.69 1.32 1.05l-52.57 52.57c-.36-.432-.71-.872-1.05-1.32l52.3-52.3zm2.208 1.808c.42.372.827.752 1.23 1.142L23.195 68.983c-.39-.402-.77-.81-1.142-1.229l52.7-52.7zm2.05 1.963c.39.402.77.81 1.142 1.229l-52.7 52.7c-.42-.372-.827-.752-1.23-1.142l52.788-52.787zm1.9 2.116c.36.433.71.873 1.05 1.321l-52.3 52.3c-.448-.34-.888-.69-1.32-1.05l52.57-52.57zm1.75 2.263A37.167 37.167 0 0 1 87.334 43c0 20.619-16.715 37.333-37.334 37.333a37.167 37.167 0 0 1-21.604-6.879l52.058-52.058z" fill="#000" fill-rule="nonzero" /></g></svg>