<svg xmlns="http://www.w3.org/2000/svg" width="100" height="86"><g fill="none" fill-rule="evenodd"><path d="M89.734 43A39.867 39.867 0 1 1 10 43a39.867 39.867 0 1 1 79.734 0z" fill="#FFCB00" fill-rule="nonzero" /><path d="M90.5 43c0 22.368-18.132 40.5-40.5 40.5S9.5 65.368 9.5 43 27.632 2.5 50 2.5 90.5 20.632 90.5 43z" stroke="#000" /><path d="M50 5C29.013 5 12 22.013 12 43s17.013 38 38 38 38-17.013 38-38S70.987 5 50 5zm0 7c17.12 0 31 13.88 31 31 0 17.12-13.88 31-31 31-17.12 0-31-13.88-31-31 0-17.12 13.88-31 31-31z" fill="red" fill-rule="nonzero" /><g fill="#000" fill-rule="nonzero"><g id="digits" fill="#000" fill-rule="nonzero"><g transform="translate(31.726658 30.643413) scale(0.110821)"><path d="M5.04502 17.229L17.045 49.2289C35.7117 36.2289 76.245 18.0289 89.045 49.2289C94.045 73.229 70.045 90.229 42.545 94.729V124.729C51.045 122.229 69.6474 119.495 78.545 124.729C87.045 129.729 93.045 130.229 99.045 147.229C100.378 155.562 98.745 174.229 81.545 182.229C64.345 190.229 44.7117 189.229 37.045 187.729C25.7117 185.396 2.54502 179.629 0.545017 175.229C0.184753 174.436 2.04502 198.396 4.04502 212.729C16.8784 218.896 54.939 230.526 99.045 212.729C156.045 189.729 144.045 107.729 91.545 99.729C105.045 91.7289 129.38 70.6943 126.545 49.2289C123.045 22.729 118.045 14.729 91.545 3.72896C74.2117 -0.604352 32.645 -3.97097 5.04502 17.229Z" />
</g><g transform="translate(51.771111 30.643413) scale(0.111321)"><path fill-rule="evenodd" clip-rule="evenodd" d="M74 221.159C98.6667 222.492 147.9 201.459 147.5 106.659C147.1 11.8591 90.6667 -3.17424 62.5 1.15909C41.8333 5.32576 0.5 32.2591 0.5 106.659C0.5 199.659 41.5 221.159 74 221.159ZM109.5 106.659C111.5 172.259 86.6667 188.659 74 188.659C59 190.159 37.9 171.059 37.5 106.659C37.1 42.2591 61.6667 31.4924 74 34.1591C85 30.9924 107.5 41.0591 109.5 106.659Z" />
</g></g></g></g></svg>