<svg width="80" height="80" viewBox="0 0 80 80" fill="none" xmlns="http://www.w3.org/2000/svg">
<path d="M74 0H6C2.68629 0 0 2.68629 0 6V74C0 77.3137 2.68629 80 6 80H74C77.3137 80 80 77.3137 80 74V6C80 2.68629 77.3137 0 74 0Z" fill="white"/>
<path d="M73.3848 0.614014H6.61377C3.30006 0.614014 0.61377 3.30031 0.61377 6.61401V73.385C0.61377 76.6987 3.30006 79.385 6.61377 79.385H73.3848C76.6985 79.385 79.3848 76.6987 79.3848 73.385V6.61401C79.3848 3.30031 76.6985 0.614014 73.3848 0.614014Z" stroke="black"/>
<path d="M5.80301 3.00001C5.43469 2.99922 5.06984 3.07118 4.72941 3.21176C4.38898 3.35235 4.07966 3.55878 3.81922 3.81922C3.55878 4.07966 3.35235 4.38898 3.21176 4.72941C3.07118 5.06984 2.99922 5.43469 3.00001 5.80301V74.197C2.99922 74.5653 3.07118 74.9302 3.21176 75.2706C3.35235 75.611 3.55878 75.9204 3.81922 76.1808C4.07966 76.4412 4.38898 76.6477 4.72941 76.7883C5.06984 76.9288 5.43469 77.0008 5.80301 77H50.466V76.629C50.466 74.5473 49.639 72.5509 48.167 71.079L30.743 53.65C29.1355 54.399 27.3834 54.7864 25.61 54.785C18.891 54.785 13.445 49.338 13.445 42.62C13.445 37.275 16.894 32.732 21.685 31.1V26.923H15.148L25.61 8.61001L36.076 26.924H29.534V31.1C34.326 32.733 37.775 37.276 37.775 42.62C37.775 44.642 37.284 46.546 36.412 48.223L50.466 62.277V26.924H43.924L54.39 8.61001L64.852 26.924H58.314V77H74.197C74.5653 77.0008 74.9302 76.9288 75.2706 76.7883C75.611 76.6477 75.9204 76.4412 76.1808 76.1808C76.4412 75.9204 76.6477 75.611 76.7883 75.2706C76.9288 74.9302 77.0008 74.5653 77 74.197V5.80301C77.0008 5.43469 76.9288 5.06984 76.7883 4.72941C76.6477 4.38898 76.4412 4.07966 76.1808 3.81922C75.9204 3.55878 75.611 3.35235 75.2706 3.21176C74.9302 3.07118 74.5653 2.99922 74.197 3.00001H41.307V11.227H38.693V3.00001H5.80301ZM38.693 13.84H41.307V21.69H38.693V13.84ZM38.693 24.307H41.307V32.155H38.693V24.307Z" fill="#0D69E1"/>
<path d="M18.77 39.77C18.6344 39.7699 18.5008 39.8032 18.381 39.8668C18.2612 39.9305 18.1589 40.0226 18.083 40.135L16.785 42.059C16.693 42.1959 16.6439 42.3571 16.644 42.522V45.067C16.644 45.524 17.014 45.894 17.471 45.894H18.219C18.2451 45.4515 18.4392 45.0357 18.7617 44.7316C19.0842 44.4275 19.5108 44.2581 19.954 44.2581C20.3973 44.2581 20.8238 44.4275 21.1464 44.7316C21.4689 45.0357 21.663 45.4515 21.689 45.894H28.149C28.181 45.234 28.579 44.671 29.145 44.404H21.94V40.598C21.94 40.3786 21.8529 40.1681 21.6979 40.0129C21.5428 39.8576 21.3325 39.7703 21.113 39.77H18.77ZM18.814 40.267H20.699C20.927 40.267 21.113 40.452 21.113 40.68V41.84C21.1128 41.9496 21.069 42.0547 20.9914 42.1321C20.9138 42.2095 20.8087 42.253 20.699 42.253H18.03C17.9551 42.2527 17.8816 42.2321 17.8175 42.1934C17.7534 42.1546 17.7009 42.0992 17.6658 42.033C17.6307 41.9668 17.6143 41.8923 17.6182 41.8174C17.6221 41.7426 17.6462 41.6702 17.688 41.608L18.468 40.449C18.5062 40.3927 18.5577 40.3467 18.6178 40.315C18.678 40.2832 18.746 40.2668 18.814 40.267Z" fill="black"/>
<path d="M23.2639 37.2871C23.1551 37.287 23.0475 37.3083 22.947 37.3499C22.8465 37.3915 22.7553 37.4525 22.6784 37.5294C22.6016 37.6063 22.5407 37.6977 22.4993 37.7982C22.4578 37.8987 22.4366 38.0064 22.4369 38.1151V43.9081H33.1949V38.1151C33.1951 38.0064 33.1739 37.8987 33.1325 37.7982C33.091 37.6977 33.0301 37.6063 32.9533 37.5294C32.8765 37.4525 32.7852 37.3915 32.6847 37.3499C32.5843 37.3083 32.4766 37.287 32.3679 37.2871H23.2639ZM29.8849 44.5701C29.5117 44.5701 29.1538 44.7183 28.89 44.9822C28.6261 45.2461 28.4779 45.604 28.4779 45.9771C28.4779 46.3503 28.6261 46.7081 28.89 46.972C29.1538 47.2359 29.5117 47.3841 29.8849 47.3841C30.258 47.3841 30.6159 47.2359 30.8798 46.972C31.1436 46.7081 31.2919 46.3503 31.2919 45.9771C31.2919 45.604 31.1436 45.2461 30.8798 44.9822C30.6159 44.7183 30.258 44.5701 29.8849 44.5701ZM29.8849 45.2321C30.0825 45.2321 30.272 45.3106 30.4117 45.4503C30.5514 45.59 30.6299 45.7795 30.6299 45.9771C30.6299 46.1747 30.5514 46.3642 30.4117 46.5039C30.272 46.6436 30.0825 46.7221 29.8849 46.7221C29.6873 46.7221 29.4978 46.6436 29.3581 46.5039C29.2184 46.3642 29.1399 46.1747 29.1399 45.9771C29.1399 45.7795 29.2184 45.59 29.3581 45.4503C29.4978 45.3106 29.6873 45.2321 29.8849 45.2321ZM31.6199 45.8941C31.6051 45.5788 31.5046 45.2734 31.3293 45.0109C31.154 44.7484 30.9105 44.5386 30.6249 44.4041H33.1949V45.8941H31.6199ZM19.9539 44.5701C19.5807 44.5701 19.2228 44.7183 18.959 44.9822C18.6951 45.2461 18.5469 45.604 18.5469 45.9771C18.5469 46.3503 18.6951 46.7081 18.959 46.972C19.2228 47.2359 19.5807 47.3841 19.9539 47.3841C20.327 47.3841 20.6849 47.2359 20.9488 46.972C21.2126 46.7081 21.3609 46.3503 21.3609 45.9771C21.3609 45.604 21.2126 45.2461 20.9488 44.9822C20.6849 44.7183 20.327 44.5701 19.9539 44.5701ZM19.9539 45.2321C20.1515 45.2321 20.341 45.3106 20.4807 45.4503C20.6204 45.59 20.6989 45.7795 20.6989 45.9771C20.6989 46.1747 20.6204 46.3642 20.4807 46.5039C20.341 46.6436 20.1515 46.7221 19.9539 46.7221C19.7563 46.7221 19.5668 46.6436 19.4271 46.5039C19.2874 46.3642 19.2089 46.1747 19.2089 45.9771C19.2089 45.7795 19.2874 45.59 19.4271 45.4503C19.5668 45.3106 19.7563 45.2321 19.9539 45.2321Z" fill="black"/>
<path d="M25.3331 30.2671C18.4851 30.2671 12.9331 35.8181 12.9331 42.6671C12.9331 49.5151 18.4851 55.0671 25.3331 55.0671C32.1821 55.0671 37.7331 49.5151 37.7331 42.6671C37.7331 35.8181 32.1821 30.2671 25.3331 30.2671ZM25.3331 32.3631C31.0231 32.3631 35.6371 36.9761 35.6371 42.6671C35.6371 48.3571 31.0241 52.9701 25.3331 52.9701C19.6431 52.9701 15.0301 48.3571 15.0301 42.6671C15.0301 36.9771 19.6431 32.3631 25.3331 32.3631Z" fill="#FF0000"/>
</svg>
