<svg xmlns="http://www.w3.org/2000/svg" width="100" height="86"><g fill="none" fill-rule="evenodd"><path d="M89.734 43A39.867 39.867 0 1 1 10 43a39.867 39.867 0 1 1 79.734 0z" fill="#FFF" fill-rule="nonzero" /><path d="M90.5 43c0 22.368-18.132 40.5-40.5 40.5S9.5 65.368 9.5 43 27.632 2.5 50 2.5 90.5 20.632 90.5 43z" stroke="#000" /><path d="M50 5C29.013 5 12 22.013 12 43s17.013 38 38 38 38-17.013 38-38S70.987 5 50 5zm0 7c17.12 0 31 13.88 31 31 0 17.12-13.88 31-31 31-17.12 0-31-13.88-31-31 0-17.12 13.88-31 31-31z" fill="red" fill-rule="nonzero" /><g fill="#000" fill-rule="nonzero"><g id="digits" fill="#000" fill-rule="nonzero"><g transform="translate(29.424839 32.938447) scale(0.095370)"><path d="M0.642227 49.9999L42.6422 0.5H75.6422V210.5H44.6422V46.4999L12.1422 65L0.642227 49.9999Z" />
</g><g transform="translate(40.360755 32.938447) scale(0.092308)"><path d="M0.699924 33.3172L24.6999 59.3172C36.3666 43.1505 66.0525 16.0453 89.6999 38.8172C120.292 68.2767 67.1999 113.817 67.1999 113.817C67.1999 113.817 24.3666 160.817 1.19992 184.817V217.317H126.7L136.7 181.317H48.6999L113.7 113.817C128.046 101.541 154.791 57.7699 113.7 17.8172C73.8859 -20.8943 20.0197 14.7654 0.699924 33.3172Z" />
</g><g transform="translate(56.925702 32.938447) scale(0.090645)"><path fill-rule="evenodd" clip-rule="evenodd" d="M74 221.159C98.6667 222.492 147.9 201.459 147.5 106.659C147.1 11.8591 90.6667 -3.17424 62.5 1.15909C41.8333 5.32576 0.5 32.2591 0.5 106.659C0.5 199.659 41.5 221.159 74 221.159ZM109.5 106.659C111.5 172.259 86.6667 188.659 74 188.659C59 190.159 37.9 171.059 37.5 106.659C37.1 42.2591 61.6667 31.4924 74 34.1591C85 30.9924 107.5 41.0591 109.5 106.659Z" />
</g></g></g></g></svg>