<svg width="82" height="82" viewBox="0 0 82 82" fill="none" xmlns="http://www.w3.org/2000/svg">
<path d="M4 0H78C79.0609 0 80.0783 0.421427 80.8284 1.17157C81.5786 1.92172 82 2.93913 82 4V78C82 79.0609 81.5786 80.0783 80.8284 80.8284C80.0783 81.5786 79.0609 82 78 82H4C2.93913 82 1.92172 81.5786 1.17157 80.8284C0.421424 80.0783 0 79.0609 0 78V4C0 2.93913 0.421424 1.92172 1.17157 1.17157C1.92172 0.421427 2.93913 0 4 0Z" fill="white"/>
<path fill-rule="evenodd" clip-rule="evenodd" d="M5.61377 1.61401H76.3848C77.4456 1.61401 78.4631 2.03544 79.2132 2.78559C79.9633 3.53573 80.3848 4.55315 80.3848 5.61401V76.385C80.3848 77.4459 79.9633 78.4633 79.2132 79.2134C78.4631 79.9636 77.4456 80.385 76.3848 80.385H5.61377C4.5529 80.385 3.53549 79.9636 2.78535 79.2134C2.0352 78.4633 1.61377 77.4459 1.61377 76.385V5.61401C1.61377 4.55315 2.0352 3.53573 2.78535 2.78559C3.53549 2.03544 4.5529 1.61401 5.61377 1.61401Z" stroke="black"/>
<path d="M4 75.197C4 75.9404 4.29531 76.6534 4.82098 77.179C5.34664 77.7047 6.0596 78 6.803 78H75.197C75.9404 78 76.6534 77.7047 77.179 77.179C77.7047 76.6534 78 75.9404 78 75.197V6.803C78 6.0596 77.7047 5.34664 77.179 4.82098C76.6534 4.29532 75.9404 4 75.197 4H6.803C6.0596 4 5.34664 4.29532 4.82098 4.82098C4.29531 5.34664 4 6.0596 4 6.803V75.197ZM7.512 64.405C7.512 64.209 7.564 64.015 7.662 63.845L40.03 7.785C40.1284 7.6145 40.2699 7.4729 40.4403 7.37446C40.6108 7.27601 40.8042 7.22418 41.001 7.22418C41.1978 7.22418 41.3912 7.27601 41.5617 7.37446C41.7321 7.4729 41.8736 7.6145 41.972 7.785L74.339 63.845C74.4378 64.0154 74.49 64.2088 74.4902 64.4058C74.4904 64.6028 74.4387 64.7964 74.3402 64.967C74.2417 65.1376 74.1 65.2792 73.9293 65.3775C73.7586 65.4758 73.565 65.5274 73.368 65.527H8.633C8.48575 65.527 8.33995 65.498 8.20393 65.4416C8.06792 65.3851 7.94436 65.3025 7.84033 65.1982C7.7363 65.094 7.65385 64.9703 7.59768 64.8342C7.54151 64.6981 7.51174 64.5522 7.512 64.405Z" fill="#0D69E1"/>
<path d="M21.4689 56.922L16.5859 64.246H23.4219L26.3519 56.922H21.4689ZM38.8029 56.922L37.8259 64.246H44.1739L43.1969 56.922H38.8029ZM55.6479 56.922L58.5779 64.246H65.4139L60.5309 56.922H55.6479ZM48.4279 59.904C48.5729 60.461 48.9319 60.9383 49.4268 61.2322C49.9216 61.5261 50.5125 61.6128 51.071 61.4736C51.6295 61.3344 52.1105 60.9804 52.4095 60.4886C52.7085 59.9968 52.8014 59.4069 52.6679 58.847L49.4679 46.014C49.4276 45.852 49.344 45.704 49.2259 45.586L43.4409 39.802V27.579C43.4409 27.168 43.2219 26.789 42.8669 26.583L39.8979 24.869C39.5482 24.6674 39.1516 24.5613 38.7479 24.5613C38.3443 24.5613 37.9477 24.6674 37.5979 24.869L30.2749 29.098C29.9254 29.2995 29.6352 29.5895 29.4333 29.9389C29.2314 30.2882 29.1251 30.6845 29.1249 31.088V39.138C29.1249 39.5955 29.3067 40.0342 29.6302 40.3577C29.9537 40.6812 30.3924 40.863 30.8499 40.863C31.3074 40.863 31.7462 40.6812 32.0697 40.3577C32.3932 40.0342 32.5749 39.5955 32.5749 39.138V32.285C32.5749 32.1234 32.6174 31.9647 32.6981 31.8248C32.7789 31.6849 32.895 31.5687 33.0349 31.488L36.1399 29.695V39.345C36.1399 39.65 36.2609 39.942 36.4769 40.158L45.6589 49.34C45.7769 49.458 45.8606 49.606 45.9009 49.768L48.4279 59.904Z" fill="black"/>
<path d="M36.78 42.087L39.978 45.286L31.213 60.468C30.9188 60.9609 30.4424 61.3182 29.8869 61.4627C29.3314 61.6072 28.7413 61.5273 28.2442 61.2403C27.7472 60.9533 27.383 60.4821 27.2304 59.9288C27.0779 59.3754 27.1492 58.7842 27.429 58.283L36.78 42.087ZM44.591 37.323V32.444L51.158 39.011C51.3192 39.171 51.4472 39.3613 51.5346 39.5708C51.6221 39.7804 51.6673 40.0052 51.6677 40.2323C51.6681 40.4594 51.6237 40.6843 51.5369 40.8942C51.4502 41.1041 51.3229 41.2947 51.1622 41.4553C51.0016 41.6158 50.8109 41.7431 50.601 41.8297C50.3911 41.9164 50.1661 41.9608 49.939 41.9603C49.7119 41.9598 49.4872 41.9145 49.2777 41.8269C49.0681 41.7393 48.8779 41.6113 48.718 41.45L44.591 37.323ZM45.888 21.537C45.888 23.35 44.6 24.963 42.975 24.963C41.188 24.963 38.1 23.15 38.1 20.563C38.1 18.713 39.637 17.363 41.35 17.363C44.075 17.363 45.888 19.45 45.888 21.537Z" fill="black"/>
</svg>
