<svg width="139" height="221" viewBox="0 0 139 221" fill="none" xmlns="http://www.w3.org/2000/svg">
<path fill-rule="evenodd" clip-rule="evenodd" d="M129.718 43.0917L123.218 8.09167C109.385 2.59167 75.3179 -5.30833 49.7179 7.09167C24.1179 19.4917 12.7179 47.5917 10.2179 60.0917C2.88458 77.2583 -7.38208 124.092 10.2179 174.092C32.2179 236.592 93.7179 220.092 101.718 213.092C112.885 204.592 135.718 181.092 137.718 155.092C140.218 122.592 129.718 98.5917 115.718 92.0917C101.718 85.5917 80.7179 67.5917 37.2179 102.092C37.8846 67.7583 57.3179 7.89167 129.718 43.0917ZM37.2179 136.092C32.7179 197.592 110.718 214.592 105.718 136.092C102.718 116.092 74.8179 92.4917 37.2179 136.092Z" fill="black" stroke="black"/>
</svg>
