<svg width="148" height="221" viewBox="0 0 148 221" fill="none" xmlns="http://www.w3.org/2000/svg">
<path fill-rule="evenodd" clip-rule="evenodd" d="M37.3119 104.578C6.31191 112.578 -27.0881 180.078 37.3119 214.078C52.8119 222.261 97.4119 222.878 109.812 214.078C151.312 196.578 168.812 131.078 104.812 104.578C142.312 94.0782 166.412 29.9782 104.812 5.57818C96.8119 -0.422008 53.3119 -1.922 39.8119 5.57805C7.81191 17.0779 -18.2881 72.9783 37.3119 104.578ZM73.3119 87.078C101.812 79.078 124.112 35.078 73.3119 31.078C23.8119 35.578 43.8119 81.078 73.3119 87.078ZM104.312 176.578C113.112 167.378 109.312 151.578 104.312 148.078C103.912 146.478 81.8119 125.578 73.3119 121.578C67.3119 121.578 49.8119 137.578 41.8119 145.578C33.4119 151.178 36.8119 170.745 41.8119 176.578C56.8119 194.078 93.8119 189.578 104.312 176.578Z" fill="black" stroke="black"/>
</svg>
