<svg width="138" height="223" viewBox="0 0 138 223" fill="none" xmlns="http://www.w3.org/2000/svg">
<path d="M5.04502 17.229L17.045 49.2289C35.7117 36.2289 76.245 18.0289 89.045 49.2289C94.045 73.229 70.045 90.229 42.545 94.729V124.729C51.045 122.229 69.6474 119.495 78.545 124.729C87.045 129.729 93.045 130.229 99.045 147.229C100.378 155.562 98.745 174.229 81.545 182.229C64.345 190.229 44.7117 189.229 37.045 187.729C25.7117 185.396 2.54502 179.629 0.545017 175.229C0.184753 174.436 2.04502 198.396 4.04502 212.729C16.8784 218.896 54.939 230.526 99.045 212.729C156.045 189.729 144.045 107.729 91.545 99.729C105.045 91.7289 129.38 70.6943 126.545 49.2289C123.045 22.729 118.045 14.729 91.545 3.72896C74.2117 -0.604352 32.645 -3.97097 5.04502 17.229Z" fill="black" stroke="black"/>
</svg>
