<svg width="136" height="216" viewBox="0 0 136 216" fill="none" xmlns="http://www.w3.org/2000/svg">
<path d="M8.68118 0.5H125.181L113.181 37H40.1812V80.5C55.3478 74.3333 73.1812 60.5 107.181 80.5C128.681 99 130.181 108 133.681 121C136.481 131.4 133.515 149 131.681 156.5C128.515 174.667 109.881 211.9 60.6812 215.5C44.6812 215.5 13.6812 206.5 6.68118 200L0.681183 163.5C17.5145 174.833 58.3812 190.7 87.1812 163.5C95.1812 156 106.381 135.2 87.1812 112C67.9812 88.8 41.1812 100.667 30.1812 109.5H26.1812L8.68118 100V0.5Z" fill="black" stroke="black"/>
</svg>
